/* XPM */
static char *_410923b52f04080e6ad6aafa8441294wvsr1KlVFfo3V7Mv[] = {
/* columns rows colors chars-per-pixel */
"30 30 160 2 ",
"   c #030302",
".  c #090605",
"X  c #0C0A05",
"o  c #140C06",
"O  c #140E0C",
"+  c #180E09",
"@  c #17100F",
"#  c #191209",
"$  c #1E1C0B",
"%  c #151506",
"&  c #130F10",
"*  c #161012",
"=  c #1D1413",
"-  c #200E09",
";  c #201706",
":  c #2C1C0F",
">  c #221210",
",  c #241A16",
"<  c #271D1A",
"1  c #2B1E1B",
"2  c #2C1918",
"3  c #3C1D1B",
"4  c #1F2109",
"5  c #23210C",
"6  c #2B2A0C",
"7  c #2D3509",
"8  c #363B0E",
"9  c #2C2911",
"0  c #2D2615",
"q  c #34271E",
"w  c #3A3414",
"e  c #342523",
"r  c #3A2725",
"t  c #3A2A24",
"y  c #3C2B29",
"u  c #443411",
"i  c #412D2A",
"p  c #4B2E2B",
"a  c #47312D",
"s  c #4E382D",
"d  c #423524",
"f  c #503E2B",
"g  c #4F3632",
"h  c #543B36",
"j  c #583B37",
"k  c #5B3D39",
"l  c #553D39",
"z  c #633F28",
"x  c #643D27",
"c  c #713F2F",
"v  c #554916",
"b  c #5B401F",
"n  c #56531B",
"m  c #64401E",
"M  c #6B551D",
"N  c #65681C",
"B  c #544A22",
"V  c #5B4B29",
"C  c #5B4234",
"Z  c #56403F",
"A  c #59403D",
"S  c #615525",
"D  c #63512E",
"F  c #785028",
"G  c #62433F",
"H  c #6D4D38",
"J  c #654F34",
"K  c #6F5230",
"L  c #775036",
"P  c #764625",
"I  c #706420",
"U  c #726E21",
"Y  c #75692C",
"T  c #737525",
"R  c #7C6D32",
"E  c #4F3F47",
"W  c #503F47",
"Q  c #524046",
"!  c #5C4343",
"~  c #554248",
"^  c #5C4549",
"/  c #644642",
"(  c #6A4743",
")  c #664846",
"_  c #6A4945",
"`  c #60474B",
"'  c #62484C",
"]  c #6D4C4A",
"[  c #704C47",
"{  c #724E4A",
"}  c #77514C",
"|  c #79524D",
" . c #7D5551",
".. c #8E4F37",
"X. c #8F5D31",
"o. c #975930",
"O. c #9E5538",
"+. c #847F26",
"@. c #9D6132",
"#. c #9F7130",
"$. c #AF7637",
"%. c #80554F",
"&. c #815651",
"*. c #855954",
"=. c #8A5B56",
"-. c #9A6247",
";. c #9E784F",
":. c #AA6641",
">. c #AA654B",
",. c #B77440",
"<. c #CF7B48",
"1. c #848325",
"2. c #888C26",
"3. c #908A2A",
"4. c #989426",
"5. c #938634",
"6. c #A68232",
"7. c #B18832",
"8. c #B3B12F",
"9. c #A6A030",
"0. c #AAA730",
"q. c #B5AD39",
"w. c #BAB434",
"e. c #B7B835",
"r. c #C6C739",
"t. c #CDC93E",
"y. c #D0C73C",
"u. c #D6CD3D",
"i. c #B38350",
"p. c #BA8B65",
"a. c #CD8943",
"s. c #D6844A",
"d. c #CF8C53",
"f. c #C98E5A",
"g. c #DD9951",
"h. c #ED9F4F",
"j. c #E69E55",
"k. c #E59C5A",
"l. c #F7A957",
"z. c #C08D60",
"x. c #D2996A",
"c. c #FDAC62",
"v. c #FFB562",
"b. c #E4A670",
"n. c #E8AE74",
"m. c #FBB873",
"M. c #E3DC47",
"N. c #E9E449",
"B. c #F0F34A",
"V. c #FFFF57",
"C. c #FEC06E",
"Z. c #FFC171",
"A. c #FFC47B",
"S. c #FFCF7F",
"D. c #FFE760",
"F. c #FFED64",
"G. c #FFE975",
"H. c #EEBA83",
"J. c #FEC283",
"K. c #FFCE89",
/* pixels */
"E ! { } } } } } } | { ^ Q Q Q Q ^ } } } } } } } } } ^ Q Q Q ",
"^ ' { } } } } } } | } ] ^ ~ ~ ~ _ { } } } } } } | } ) ^ ~ Q ",
"{ { } } } } } } } } }  . .` ~ ' { { | { } } } } | |  . .` Q ",
"} | } } | } } } } } | =.*.' ^ { | | | | } } } } } | =.*.` Q ",
"} } } } } } } } } } | *.*.' ~ ] | { | | | } } } } | *.*.^ ~ ",
"} } } } } } } } } } | *. .' ~ { | } | { { } } } } | =.*.^ ~ ",
"} } } } } } | } } }  .*.*.' ^ ] | } | { | | | | } | *. .' Q ",
"} } } | } } } } } }  .*.*.' ^ ] | { | | | { { | } } *.*.' Q ",
"} } | } } } } } } }  .*.*.' ~ ] | } } } } } | | }  .=.*.` E ",
"| } } } } } } } }  .*.=.*.' ^ ] | } } } } } { |  .*.=. .` Q ",
"[ } | | | | | | | *.=.=. .` ^ ] } | | | | | | | *.=.=. .` ~ ",
"G ] *.*.*.*.=.*.*.=.=.| l = .   . . e ] | *.*.=.=.=. .` ~ Q ",
"A ) | *.*.&.*.&.*.*. .! y & . 2 b K C C [ &.*.*.=. .) ~ Q Q ",
"Q ! ) _ _ _ _ _ ( ) / e & < c ,.l.m.;.q y / / _ ' ) ! Q Q Q ",
"Q ~ ! A G ! ! / ! l y 2 x :.<.s.d.i.J < y A A / G A ~ Q Q Q ",
"Q ~ _ } ] { [ [ ] i 2 X.h.l.s...3 X < a G } { ] } ] ~ Q Q Q ",
"~ ) } } } _ j h C B N $.a.l.k.-.p , < g h j ( | | } ] ^ ~ Q ",
"] } } | } g = + n r.8.v f f.m.b.x.z.H 2 @ = a [ { |  . .^ Q ",
"| | } _ C R n   $ 2.4.M L p.m.K.K.A.>.> 7 1.Y s y | *.*.' Q ",
"} ] ] g S N.t.6     u $.j.n.H.H.K.m.O.- N B.M.S *  .*.*.' Q ",
"| r t B 9.u.y.+.$   . P j.Z.A.A.G.F.7.; 8 e.q.V 1 | *.*.` Q ",
"| & v q.9.n U w.1.%   X F g.c.v.D.V.w.6 X 6 B G !  .*.*.` Q ",
"} e D 5.N X 5 +.3.6     o m o.@.6.0.T d r i W | } } =.*.` Q ",
"| / _ j 0 . . 5 w $ . . . X + + # $ q k [ [ } | }  .=. .` Q ",
"| ( / p @ . . . . . . . X . . . . . 1 A ] [ { | | *.=.*.' Q ",
"{ { | | | | | | | *.=.=. .' ~ _ } | | | | | | | =.=.=.&.^ Q ",
"/ ] &.*.*.*.*.*.=.=.=.| ) ~ Q / [ &.=.*.=.*.*.=.=.=.| _ ~ Q ",
"A ) | *.*.*.*.*.*.*.&._ Z Q Q Q ) %.*.*.&.*.*.*.=.%._ Q Q Q ",
"Q ! ) _ ) _ ) _ _ _ / ~ Q Q Q Q ! ) / _ _ ) _ / _ / ! Q Q Q ",
"Q Q Z Z A l A A A Z A Q Q Q Q Q Q Z A A A A A Z A Z Q Q Q Q "
};
