/* XPM */
static char *c80d84f380ef4ce5b8ccc29fd42b1e24MP8qTIYJNfUTyWqy[] = {
/* columns rows colors chars-per-pixel */
"30 30 97 2 ",
"   c #323234",
".  c #433C2F",
"X  c #534721",
"o  c #57403E",
"O  c #56403F",
"+  c #58403D",
"@  c #4F3F47",
"#  c #503F47",
"$  c #564041",
"%  c #524044",
"&  c #534044",
"*  c #524045",
"=  c #514046",
"-  c #504047",
";  c #514047",
":  c #544145",
">  c #5C4342",
",  c #594244",
"<  c #594344",
"1  c #5A4344",
"2  c #584347",
"3  c #594347",
"4  c #5B4447",
"5  c #514048",
"6  c #554248",
"7  c #5B4448",
"8  c #5B4548",
"9  c #5D4648",
"0  c #5F474B",
"q  c #545456",
"w  c #634642",
"e  c #644745",
"r  c #644845",
"t  c #654845",
"y  c #674946",
"u  c #674947",
"i  c #684945",
"p  c #694945",
"a  c #60474B",
"s  c #634849",
"d  c #64484A",
"f  c #62484C",
"g  c #63494C",
"h  c #6A4B48",
"j  c #6E4C48",
"k  c #6A4C4C",
"l  c #6B4C4C",
"z  c #704E4B",
"x  c #734F4A",
"c  c #724F4B",
"v  c #734F4C",
"b  c #685F41",
"n  c #75504B",
"m  c #76504B",
"M  c #75504C",
"N  c #76504C",
"B  c #76514C",
"V  c #77514C",
"C  c #78514C",
"Z  c #78524C",
"A  c #78524D",
"S  c #79524D",
"D  c #7A524D",
"F  c #7A534D",
"G  c #7B534E",
"H  c #7C544F",
"J  c #77584A",
"K  c #705654",
"L  c #7A5452",
"P  c #7F5550",
"I  c #7E5552",
"U  c #767678",
"Y  c #8B5E4A",
"T  c #815651",
"R  c #805652",
"E  c #845853",
"W  c #855953",
"Q  c #865953",
"!  c #875A53",
"~  c #835854",
"^  c #845955",
"/  c #875A54",
"(  c #885A54",
")  c #895A54",
"_  c #885A55",
"`  c #8B5C56",
"'  c #8C5C57",
"]  c #8D5D57",
"[  c #A77E5D",
"{  c #887F61",
"}  c #8F7772",
"|  c #979799",
" . c #A48D87",
".. c #B7A099",
"X. c #B7B7BB",
"o. c #D2D2D6",
"O. c white",
/* pixels */
"@ 7 z Z N Z N Z N Z               z C C m Z V V Z n 7 - # - ",
"7 s z Z Z N Z N     q q U U U q q     m V V V V Z V l 0 6 - ",
"z z V Z N Z Z   q U U | | | | | U U q   V V V V V Z I L 0 # ",
"Z Z V V Z N   q U | | | X.X.X.| | | U q   V V V V Z ) ^ f @ ",
"Z N N Z N   q U | | | X.X.X.X.X.| | | U q   C m V Z W ^ f @ ",
"N Z Z N   q U | | | X.X.X.X.X.X.X.| | | U q   C V Z | ^ f @ ",
"Z N Z Z   U U | | | X.X.X.X.X.X.X.| | | U U   C V | O.| f @ ",
"N Z N   q U | | | | | X.X.X.X.X.| | | | | U q   V | O.| f @ ",
"Z N Z   q U | | | | | | | | | | | | | | | U q   | o.O.| s # ",
"Z Z N   q U | | | | | | | | | | | | | | | U q   | o.o.| f # ",
"x v   U   q U | | | | | | | | | | | | | U q   U   o.o.| f @ ",
"w z   U   q U U | | | | | | | | | | | U U q   U   o.o.| 6 - ",
". u   q   q q U U U | | | | | | | U U U q q   q   o.| $ & - ",
"7 7       q q q U U U U U U U U U U U q q q       . . - - - ",
"# # >   q q q q q q U U U U U U U q q q q q q   b b . - - - ",
"# # j   q U q q q q q q q q q q q q q q q U q   b . 4 # - 5 ",
"a u z Z   q U U q q q q q q q q q q q U U q   . b . l 0 6 5 ",
"z v D   q     q U U U | | | | | U U U q     q   b . T L 0 @ ",
"N D   U | X.X.      q q q q q q q       X.X.| U   . ) ^ f @ ",
"N D   q | | X.q   q U U U U U U U q   q X.| | q   . W ~ f 5 ",
"D x D   q q     U U | | | | | | | U U     q q   b D ) ^ f @ ",
"x D   U X.| U   q U U | | | | | U U q   U | X.U   Z ) ^ f @ ",
"N Z   | | U q     q q U U U U U q q     q U | |   Z ) T f @ ",
"Z N X [ [ q     q       q q q       q     q [ [ X H W ^ f @ ",
"Z Z X Y Y     q U X.}  ... ... .} X.U q   . b Y X W ] ^ d 5 ",
"x v D X . D   0 | X.} K K K K K } X.| q   b { . W ] ` I a # ",
"w j T ) ) ) )   | K  .} X X X }  .K |   W b { . ] ` Z h 4 # ",
". e P Q T T ) )   q U U       U U q   W W . b . W I u $ # # ",
"7 7 p p p p m j X Y [ J X 6 X J [ Y X p p . . p p u w # # # ",
"# # > # w . . > X [ [ Y X : X Y [ [ X + + o + + w . # # 6 # "
};
