/* XPM */
static char *b6a975b2f6fd4c9d867674471d81dab4d6RHUYF4ONSQZIwh[] = {
/* columns rows colors chars-per-pixel */
"30 30 105 2 ",
"   c #2E1E22",
".  c #3D2D26",
"X  c #323234",
"o  c #433C2F",
"O  c #534721",
"+  c #57403E",
"@  c #56403F",
"#  c #58403D",
"$  c #69423A",
"%  c #4F3F47",
"&  c #503F47",
"*  c #564041",
"=  c #524044",
"-  c #534044",
";  c #524045",
":  c #514046",
">  c #504047",
",  c #514047",
"<  c #544145",
"1  c #554145",
"2  c #5C4342",
"3  c #5F4440",
"4  c #5F4441",
"5  c #594244",
"6  c #594344",
"7  c #5A4344",
"8  c #584347",
"9  c #594347",
"0  c #5B4447",
"q  c #514048",
"w  c #554248",
"e  c #5B4448",
"r  c #5B4548",
"t  c #5D4648",
"y  c #5F474B",
"u  c #545456",
"i  c #634642",
"p  c #644745",
"a  c #644845",
"s  c #654845",
"d  c #674946",
"f  c #674947",
"g  c #684945",
"h  c #694945",
"j  c #60474B",
"k  c #634849",
"l  c #64484A",
"z  c #62484C",
"x  c #63494C",
"c  c #6A4B48",
"v  c #6C4B48",
"b  c #6E4C48",
"n  c #6A4C4C",
"m  c #6B4C4C",
"M  c #704D49",
"N  c #714D49",
"B  c #704E4B",
"V  c #734F4A",
"C  c #724F4B",
"Z  c #734F4C",
"A  c #685F41",
"S  c #75504B",
"D  c #76504B",
"F  c #75504C",
"G  c #76504C",
"H  c #76514C",
"J  c #77514C",
"K  c #78514C",
"L  c #78524C",
"P  c #78524D",
"I  c #79524D",
"U  c #7A524D",
"Y  c #7A534D",
"T  c #7B534E",
"R  c #7C544F",
"E  c #7D554F",
"W  c #77584A",
"Q  c #7C5E4F",
"!  c #7A5452",
"~  c #7F5550",
"^  c #7E5552",
"/  c #767678",
"(  c #8B5E4A",
")  c #815651",
"_  c #805652",
"`  c #845853",
"'  c #855953",
"]  c #865953",
"[  c #875A53",
"{  c #835854",
"}  c #845955",
"|  c #875A54",
" . c #885A54",
".. c #895A54",
"X. c #885A55",
"o. c #8B5C56",
"O. c #8C5C57",
"+. c #8D5D57",
"@. c #A77E5D",
"#. c #8A7461",
"$. c #887F61",
"%. c #979799",
"&. c #B7B7BB",
"*. c #D2D2D6",
"=. c white",
/* pixels */
"% e B L L G L G L L Z t X X X X X X X J J J J J L B t = & & ",
"e k B L G L G L L G X X u u / / / u u X X J J J L Z n z w & ",
"B B J L L G L G G X u / / %.%.%.%.%./ / u X J J L L ^ ! j & ",
"L L J J G L G L X u / %.%.%.&.&.&.%.%.%./ u X J J L | | z % ",
"L G L G L G G X u / %.%.%.&.&.&.&.&.%.%.%./ u X J ! | { z % ",
"G L G L G L X u / %.%.%.&.&.&.&.&.&.&.%.%.%./ u X L | { z % ",
"L G L G L L X / / %.%.%.&.&.&.&.&.&.&.%.%.%./ / X L X.{ z % ",
"G L G L G X u / %.%.%.%.%.&.&.&.&.&.%.%.%.%.%./ u X X.{ z % ",
"J J J J S X u / %.%.%.%.%.%./ X X X / / %.%./ u X X | { x % ",
"L J J J J X u / %.%.%.%.%./ X / %.%.u u u u u X %.u X | x % ",
"S J L T L X u / / %./ u u X / %.&.&.&.&.&.&.%.%./ %.X ^ y % ",
"i v ) X.| X u / / / u %.&.u / &.  / %.%.%.%./ / %.*.T l 8 % ",
"@ p T | { X u u / X %.u u &.u &.u             %.=.*.X & = q ",
"= 5 p d k X u u u X / X X %.u %.&.u         *.=.=.%.X * = q ",
"= < 2 # $ X u u u X u X X %.X u %.&.&.&.%.*.=.=.*.%.* = = q ",
"> 0 v Z N B X u u u X u / X X #.u / %.%.%.=.=.*.%.v e % & & ",
"e k F J J L L X u u u X X u X #.#.#.#.%.*.=.*.*.%.Z m z w & ",
"m F J J J J J X u u u u / u X Q Q Q a O *.*.%.%.L L { ! j & ",
"L L J J J J X u / %.&./ u X . . . . o $.A %.F F L L | | z % ",
"J J J J J J J X X X X X X u X u / o $.$ O X H F Z L | { z & ",
"J J J J J J J J K X / %.%./ u / o $.A o u X m ! L L X.{ x & ",
"J J J J J J J J K X u X X X X o $.A o u X X Z Z S T X.` x & ",
"J J J J J J J J K K X u &.%.o $.A o u / u X ! F Z T | { z % ",
"J J J J J J J J K U O / %.o A A o u u X X J J J L L X.{ z % ",
"L J J J K K Z K K T O ( @.@.A o u &.%./ X L S L E ` +.| l & ",
"Z J L L K K K K U ..o W @.@.O %.X %.%./ X L L T ` +.+.^ j & ",
"i b ) X...........o A A o O / / X X %.u X X.` X.+...L c 0 & ",
"o p ! | ] ] ) ] o A A o O u X X u X X X ` ` ` ` ` ) h & & < ",
"e e g g g g b h o A o l O E ( @.( O g g g g g g h g p & & & ",
"& & 2 # i o & 2 o o o & O W ( @.@.O @ * # # # # i o & & & & "
};
