/* XPM */
static char *_37be9fd023f4bc7c486390a66080c2dYg7mwhbFGdWu4RKN[] = {
/* columns rows colors chars-per-pixel */
"30 30 175 2 ",
"   c #220F14",
".  c #231115",
"X  c #291A1D",
"o  c #2D2023",
"O  c #2F2428",
"+  c #2A2A2B",
"@  c #302629",
"#  c #37292D",
"$  c #3F2C24",
"%  c #36312A",
"&  c #3C332C",
"*  c #2E2F31",
"=  c #3A2E31",
"-  c #2D3035",
";  c #333335",
":  c #3C3533",
">  c #373638",
",  c #3C3739",
"<  c #3A3A3C",
"1  c #412C23",
"2  c #4A3F25",
"3  c #44332F",
"4  c #57352D",
"5  c #423631",
"6  c #453B35",
"7  c #43373A",
"8  c #443B3B",
"9  c #4B3C3C",
"0  c #5E3932",
"q  c #533F3E",
"w  c #543732",
"e  c #4D462B",
"r  c #564823",
"t  c #5A4A26",
"y  c #55442B",
"u  c #57482F",
"i  c #5D4D29",
"p  c #474031",
"a  c #47423B",
"s  c #4B4234",
"d  c #524A37",
"f  c #5B4F36",
"g  c #55403E",
"h  c #59413D",
"j  c #514A3A",
"k  c #58493C",
"l  c #5C4632",
"z  c #585032",
"x  c #5B5238",
"c  c #6E502F",
"v  c #66512C",
"b  c #674D35",
"n  c #684F34",
"m  c #684E3B",
"M  c #60573B",
"N  c #60583D",
"B  c #705132",
"V  c #755934",
"C  c #3D3E41",
"Z  c #4F3F47",
"A  c #463E42",
"S  c #503F47",
"D  c #414144",
"F  c #4F4041",
"G  c #464649",
"H  c #4A4A4C",
"J  c #524046",
"K  c #5A4444",
"L  c #544148",
"P  c #5D464A",
"I  c #554C4B",
"U  c #555044",
"Y  c #56544F",
"T  c #4E4F51",
"R  c #4D5154",
"E  c #535355",
"W  c #56565A",
"Q  c #5A5B5D",
"!  c #634643",
"~  c #654844",
"^  c #6A4A45",
"/  c #60474B",
"(  c #62484C",
")  c #6D4C49",
"_  c #704F44",
"`  c #724F4A",
"'  c #6B554B",
"]  c #725344",
"[  c #77514C",
"{  c #79524D",
"}  c #7D5551",
"|  c #676046",
" . c #6C644B",
".. c #706748",
"X. c #6C6052",
"o. c #706A51",
"O. c #786F53",
"+. c #7D625B",
"@. c #7D7458",
"#. c #7D7457",
"$. c #5E5F61",
"%. c #615F61",
"&. c #5F6062",
"*. c #626264",
"=. c #656769",
"-. c #6B6B6D",
";. c #7A6A6A",
":. c #6F6F71",
">. c #737375",
",. c #767779",
"<. c #75787C",
"1. c #7B7B7D",
"2. c #8B5F4B",
"3. c #815652",
"4. c #855954",
"5. c #8A5B56",
"6. c #8B6A48",
"7. c #866E5C",
"8. c #846454",
"9. c #946550",
"0. c #867C5C",
"q. c #987858",
"w. c #A87B5B",
"e. c #B27658",
"r. c #B37A5F",
"t. c #816764",
"y. c #8A6763",
"u. c #856A60",
"i. c #856F6D",
"p. c #8A7461",
"a. c #977264",
"s. c #827A75",
"d. c #AE805F",
"f. c #7E7E80",
"g. c #7F8082",
"h. c #838385",
"j. c #868789",
"k. c #87898B",
"l. c #8B8B8D",
"z. c #8C8E91",
"x. c #8F9093",
"c. c #939396",
"v. c #969699",
"b. c #9A9A9C",
"n. c #B19C8C",
"m. c #979BA1",
"M. c #9E9EA0",
"N. c #A19FA2",
"B. c #A3A2A4",
"V. c #A6A6A8",
"C. c #A9A7AB",
"Z. c #AAAAAD",
"A. c #AEAEB1",
"S. c #AAADB2",
"D. c #AFB1B4",
"F. c #B2B3B6",
"G. c #B1B1B5",
"H. c #B7B7BB",
"J. c #B5B5B9",
"K. c #B7B7BB",
"L. c #B9B9BB",
"P. c #B8B8BD",
"I. c #BABABF",
"U. c #B9B9BE",
"Y. c #CACACD",
"T. c #C4C4C8",
"R. c #CCCCD0",
"E. c #D8D7DB",
"W. c #D9D8DB",
"Q. c #DDDDE2",
"!. c #E6E6E8",
"~. c #F2F2F2",
"^. c gray97",
"/. c #FEFEFF",
"(. c #F8F8F9",
/* pixels */
"Z K ` { [ [ [ [ [ { ` P Z , ; ; ; , ; , ` [ [ [ { ` P Z S S ",
"P / ` [ [ [ [ [ [ { ` 9 ; T Q ,.1.1.$.E > 8 ` [ [ [ ) P L S ",
"` ` [ [ [ [ [ ` [ ` q G ,.1.c.M.M.M.v.f.1.R 7 ] [ [ } } ( S ",
"[ { [ [ [ [ [ [ [ 9 G >.c.b.b.J.L.U.N.b.v.,.H 8 ) } 5.4.( G ",
"[ [ { [ +.[ [ ` 9 H >.c.b.b.K.L.K.K.K.N.v.v.1.T 8 ) 4.4.( J ",
"[ [ { i.U.t.[ ! D :.l.b.c.F.I.K.K.K.K.L.v.b.x.>.H J 4.4.( J ",
"[ [ { b./.l.{ 7 W j.b.N.v.V.L.I.I.I.I.Z.b.N.b.k.*.9 { 4.( L ",
"[ [ ` U.(.B.;.= -.,.Q -.l.j.V.D.A.D.Z.j.l.:.Q >.>.< K 4.P J ",
"[ [ [ W./.!.>.* Q 8 E H ; H *.=.*.=.*.E < C Q < Q D ! 4.( S ",
"[ [ [ W./.~.h.T < E k.j.-.c.c.c.c.c.c.c.:.g.z.Q > E I 4.( S ",
"[ [ [ Z.!.~.z.*.; &.A E k.c.A.F.G.G.G.v.z.%.7 %.C Q Q } ( S ",
"m ) 3.v.Q.^.k.H > ,.-.O # : 7 7 7 7 7 = = O Q g.< H H ^ L S ",
"S ~ 3.y.D.R.: ; < -.c.-.o   . . . . .   X Q c.>.A ; ; K S L ",
"S q ! ~ j  .& - ; D -.z.l.N.Z.C.C.C.C.V.l.x.>.G * - 7 Z S S ",
"S S K h s 0.x p W G # G :.1.c.b.b.b.b.f.,.H - a Q D 7 J G S ",
"S S ) ` ^ ..@.# < =.E 3 ] 7.p.p.p.p.0.7.{ w G -.C 9 P J J J ",
"! ^ ` } ` d @.9 Q C C : $ 4 ` ] ] ] ] 0 1 : C C E R F P L J ",
"` ` [ [ ` d O.I F.Y.N.$.: & 6 6 5 6 6 : 5 E c.R.D.l.H } P J ",
"[ { [ [ ' j #.U j.z.>.< W g.C.z.j.j.Z.k.$.< *.c.h.=.8 4.( J ",
"[ [ [ [ ) a d.x a Q + Q M.J.D.k.f.j.C.P.N.-.+ H >.Q P } ( J ",
"[ [ [ [ [ ` | o.E c.H D -.f.-.$.-.$.=.f.:.H C j.Z.D.R 4.( S ",
"{ [ [ [ [ _ x q.X.$.; ; * - < Q ,.*.C > * ; * T s.n.X.4.( S ",
"[ [ { [ [ _ v r.8.- ; E h.:.C <.h.h.C $.k.Q , * ' e.V 4.( Z ",
"[ [ [ [ [ ` M v u + D >.Y.,.$.B.T.G.:.*.R.f.H ; h B n 3.( Z ",
"{ [ [ [ [ [ ` e z q 9 g.f.C C f.C.j.G < >.c.: ^ { ] 4.4.( S ",
"` [ { { { { ^ d M m 3.I C z.<.A H G =.m.C H ^ } 4.5.5.} / S ",
"m ) 3.5.4.5.[ d M K 5.l M a.7.e h 2 +.a.V 4 4.5.5.5.{ ^ K S ",
"S ! 3.4.4.3.3.^ 6 m 3.y 6.r.9.i ~ r 2.w.q.t 4.3.5.3.! K S L ",
"S q ^ ^ ^ ^ ^ ^ ~ ~ ~ K u i t g K ! t i i ~ ^ ~ ^ ! K S K S ",
"S S S 0 0 q q K 0 q h L J J J J J g h g q h h h q q S L S S "
};
