/* XPM */
static char *_967_7948f3879c4936462277820957c7372301f6bc7420dbf3ae34f20b675fede2ca[] = {
/* columns rows colors chars-per-pixel */
"57 53 238 2 ",
"   c black",
".  c #010101",
"X  c #020202",
"o  c #040404",
"O  c gray2",
"+  c #060606",
"@  c #070707",
"#  c gray3",
"$  c #090909",
"%  c #0B0B0B",
"&  c #0C0C0C",
"*  c gray5",
"=  c #0E0E0E",
"-  c gray6",
";  c #111111",
":  c gray7",
">  c #131313",
",  c gray8",
"<  c #151515",
"1  c #161616",
"2  c gray9",
"3  c #191919",
"4  c gray10",
"5  c #1B1B1B",
"6  c gray11",
"7  c #1D1D1D",
"8  c #1E1E1E",
"9  c gray12",
"0  c #202020",
"q  c gray13",
"w  c #222222",
"e  c #232323",
"r  c gray14",
"t  c gray15",
"y  c #272727",
"u  c #282828",
"i  c gray16",
"p  c #2A2A2A",
"a  c gray17",
"s  c #2C2C2C",
"d  c #2D2D2D",
"f  c gray18",
"g  c #2F2F2F",
"h  c gray19",
"j  c #313131",
"k  c #323232",
"l  c gray20",
"z  c #343434",
"x  c #353535",
"c  c gray21",
"v  c #373737",
"b  c gray22",
"n  c #393939",
"m  c #3A3A3A",
"M  c gray23",
"N  c #3C3C3C",
"B  c #3E3E3E",
"V  c #3F3F3F",
"C  c gray25",
"Z  c #414141",
"A  c gray26",
"S  c #434343",
"D  c #444444",
"F  c gray27",
"G  c #464646",
"H  c gray28",
"J  c #494949",
"K  c gray29",
"L  c #4B4B4B",
"P  c #4C4C4C",
"I  c gray30",
"U  c #4E4E4E",
"Y  c gray31",
"T  c #505050",
"R  c #515151",
"E  c gray32",
"W  c #535353",
"Q  c gray33",
"!  c #555555",
"~  c #565656",
"^  c gray34",
"/  c #585858",
"(  c gray35",
")  c #5A5A5A",
"_  c #5B5B5B",
"`  c gray36",
"'  c #5D5D5D",
"]  c gray37",
"[  c #5F5F5F",
"{  c #606060",
"}  c gray38",
"|  c #626262",
" . c gray39",
".. c #646464",
"X. c #656565",
"o. c gray40",
"O. c #676767",
"+. c DimGray",
"@. c #6A6A6A",
"#. c gray42",
"$. c #6D6D6D",
"%. c gray43",
"&. c #6F6F6F",
"*. c gray44",
"=. c #717171",
"-. c gray45",
";. c #747474",
":. c gray46",
">. c #767676",
",. c #777777",
"<. c gray47",
"1. c #797979",
"2. c gray48",
"3. c #7B7B7B",
"4. c #7C7C7C",
"5. c gray49",
"6. c gray50",
"7. c #808080",
"8. c #818181",
"9. c gray51",
"0. c #838383",
"q. c #848484",
"w. c gray52",
"e. c #868686",
"r. c gray53",
"t. c #888888",
"y. c #898989",
"u. c #8B8B8B",
"i. c gray55",
"p. c #8D8D8D",
"a. c #8E8E8E",
"s. c gray56",
"d. c #909090",
"f. c #929292",
"g. c #939393",
"h. c gray58",
"j. c #959595",
"k. c gray59",
"l. c #979797",
"z. c #989898",
"x. c gray60",
"c. c #9B9B9B",
"v. c gray61",
"b. c #9D9D9D",
"n. c gray62",
"m. c #9F9F9F",
"M. c #A0A0A0",
"N. c gray63",
"B. c #A2A2A2",
"V. c gray64",
"C. c #A4A4A4",
"Z. c #A5A5A5",
"A. c gray65",
"S. c #A7A7A7",
"D. c gray66",
"F. c #A9A9A9",
"G. c #AAAAAA",
"H. c gray67",
"J. c #ACACAC",
"K. c gray68",
"L. c #AEAEAE",
"P. c #AFAFAF",
"I. c gray69",
"U. c #B1B1B1",
"Y. c #B2B2B2",
"T. c gray70",
"R. c #B4B4B4",
"E. c gray71",
"W. c #B6B6B6",
"Q. c #B7B7B7",
"!. c gray72",
"~. c #B9B9B9",
"^. c gray73",
"/. c #BBBBBB",
"(. c #BCBCBC",
"). c gray74",
"_. c #C0C0C0",
"`. c #C1C1C1",
"'. c gray76",
"]. c #C3C3C3",
"[. c gray77",
"{. c #C5C5C5",
"}. c #C6C6C6",
"|. c gray78",
" X c #C8C8C8",
".X c gray79",
"XX c #CACACA",
"oX c #CBCBCB",
"OX c gray80",
"+X c #CDCDCD",
"@X c #CECECE",
"#X c gray81",
"$X c gray82",
"%X c #D2D2D2",
"&X c LightGray",
"*X c gray83",
"=X c #D5D5D5",
"-X c gray84",
";X c #D7D7D7",
":X c #D8D8D8",
">X c gray85",
",X c #DADADA",
"<X c gray86",
"1X c #DDDDDD",
"2X c gray87",
"3X c #DFDFDF",
"4X c gray88",
"5X c #E1E1E1",
"6X c #E2E2E2",
"7X c gray89",
"8X c #E4E4E4",
"9X c gray90",
"0X c #E6E6E6",
"qX c #E7E7E7",
"wX c gray91",
"eX c #E9E9E9",
"rX c #EAEAEA",
"tX c gray92",
"yX c #ECECEC",
"uX c gray93",
"iX c #EEEEEE",
"pX c #EFEFEF",
"aX c gray94",
"sX c #F1F1F1",
"dX c gray95",
"fX c #F3F3F3",
"gX c #F4F4F4",
"hX c gray96",
"jX c #F6F6F6",
"kX c gray97",
"lX c #F8F8F8",
"zX c #F9F9F9",
"xX c gray98",
"cX c #FBFBFB",
"vX c gray99",
"bX c #FDFDFD",
"nX c #FEFEFE",
"mX c white",
/* pixels */
"w l S R ) { | .. .} ] ) Q P Z v a w w w w w w w w w w w w w w w w w w w w w w w w a v Z P Q ) _ / Q T U R ) $.t.F.",
"k J { -.6.r.u.a.p.u.e.6.:.o.! S j w w w w w w w w w w w w w w w w w w w w w w w w j S ! o.:.6.q.9.6.2.,.<.6.s.Z._.",
"A [ 5.j.A.P.W.~.!.E.P.A.l.9.@.T b w w w w w w w w w w w w w w w w w w w w w w w w b T @.9.l.A.J.K.F.Z.B.N.A.Y.'.;X",
"R >.z.W.XX-X3X6X6X1X-XXX!.n.6.[ C r w w w w w w w w w w w w w w w w w w w w w w r C [ 6.n.!.XX*X=X&X#XXX.XXX%X1XrX",
"[ r.I.%XrXlXmXmXmXmXkXrX=XW.g.%.J s w w w w w w w w w w w w w w w w w w w w w w s J %.g.W.=XrXgXkXkXdXuXrXrXuXdXlX",
"+.k.`.0XmXmXmXmXmXmXmXmXeX.XC.5./ b w w w w w w w w w w w w w w w w w w w w w w b / 5.C..XeXmXmXmXmXmXmXmXmXmXmXmX",
"*.m.+XgXmXmXmXmXmXmXmXmXhX;XR.a.#.P b s i i s k c b b b b b b b b c k s i i s b P #.a.R.;XhXmXmXmXmXmXmXmXmXmXmXbX",
";.A.-XnXmXmXmXmXmXmXmXmXvX6X].V.q.@./ U K L U W ~ / / / / / / / / ~ W U L K U / @.q.V.].6XvXmXmXmXmXmXmXmXmXmXmXgX",
",.F.,XmXmXmXmXmXmXmXmXmXmXrX%X~.M.i.5.:.-.-.:.1.4.5.5.5.5.5.5.5.5.4.1.:.-.-.:.5.i.M.~.%XrXmXmXmXmXmXmXmXmXmXmXvX9X",
",.F.,XmXmXmXmXmXmXmXmXmXmXaX3X@X(.L.C.m.v.b.m.N.V.C.C.C.C.C.C.C.C.V.N.m.b.v.m.C.L.(.@X3XaXmXmXmXmXmXmXmXmXmXmXsX*X",
":.A.-XnXmXmXmXmXmXmXmXmXmXhXyX6X;X#X.X|.{.{.|. X.X.X.X.X.X.X.X.X.X.X X|.{.{.|..X#X;X6XyXhXmXmXmXmXmXmXmXmXmXmX8X_.",
"*.M.@XhXmXmXmXmXmXmXmXmXnXcXjXdXpXtXeXwXwXwXwXwXwXeXeXeXeXeXeXeXeXwXwXwXwXwXwXeXtXpXdXjXcXnXmXmXmXmXmXmXmXmXjX*XH.",
"+.k.`.0XmXmXmXmXmXmXmXmXmXmXmXmXmXmXmXmXmXmXmXmXmXmXmXmXmXmXmXmXmXmXmXmXmXmXmXmXmXmXmXmXmXmXmXmXmXmXmXmXmXmXwX].z.",
"' w.L.$XeXkXmXmXmXmXmXmXmXmXmXmXmXmXmXmXmXmXmXmXmXmXmXmXmXmXmXmXmXmXmXmXmXmXmXmXmXmXmXmXmXmXmXnXmXmXmXbXjXeX$XL.w.",
"I =.h.T..X>X9XuXdXkXxXmXmXmXmXmXmXmXmXmXmXmXmXmXmXmXmXmXmXmXmXmXmXmXmXmXmXmXmXmXmXmXmXmXmXmXmXxXhXsXtX7X:X.XT.g.$.",
"N / :.s.C.E.{.&X4XyXjXmXmXmXmXmXmXmXmXmXmXmXmXmXmXmXmXmXmXmXmXmXmXmXmXmXmXmXmXmXmXmXmXmXmXmXmXhXtX3X%X[.R.C.a.-.! ",
"p B ! @.5.d.Z.^.#X6XsXmXmXmXmXmXmXmXmXmXmXmXmXmXmXmXmXmXmXmXmXmXmXmXmXmXmXmXmXmXmXmXmXmXmXmXmXdX5X+X~.V.s.5.@.Q B ",
"3 t x F / $.w.N.).;XiXmXmXmXmXmXmXmXmXmXmXmXmXmXmXmXmXmXmXmXmXmXmXmXmXmXmXmXmXmXmXmXmXmXmXmXmXiX-X/.M.q.#./ G c y ",
"& : 4 u b U #.p.P.#XtXmXmXmXmXmXmXmXmXmXmXmXmXmXmXmXmXmXmXmXmXmXmXmXmXmXmXmXmXmXmXmXmXmXmXmXmXtX@XL.u.+.P b i w w ",
"* < 5 0 w n ) 6.A.XXrXmXmXmXmXmXmXmXmXmXmXmXmXmXmXmXmXmXmXmXmXmXmXmXmXmXmXmXmXmXmXmXmXmXmXmXmXeX.XC.5./ b w w w w ",
"= 1 7 w w g R 1.B..XrXmXmXmXmXvXdXrXwXwXtXpXgXzXvXmXmXmXmXmXmXmXmXvXzXgXpXtXwXwXrXdXvXmXmXmXmXeX XN.,.U d w w w w ",
"- 1 7 w w p U <.B.XXrXmXmXmXgX8X=X X].}.@X:X7XpXzXmXmXmXmXmXmXmXmXzXpX7X:X@X}.]. X=X8XgXmXmXmXrX.XN.>.P i w w w w ",
"- 1 7 w w a T 3.A.@XuXmXmXhX4X XI.m.z.b.G./.#X7XgXmXmXmXmXmXmXmXmXgX7X#X/.G.b.z.m.I. X4XhXmXmXuX+XC.1.I p w w w w ",
"= 1 7 w w h Q 6.G.%XaXmXvXwXOXJ.p.>.$.;.r.M./.:XpXmXmXmXmXmXmXmXmXpX:X/.M.r.;.$.>.p.J.OXwXvXmXpX$XD.5.E f w w w w ",
"= < 6 q w x ) q.P.-XdXmXkX2X^.f.$.E H T o.r.G.@XtXmXmXmXmXmXmXmXmXtX@XG.r.o.T H E $.f.^.2XkXmXdX=XL.9./ l w w w w ",
"= < 5 0 w n [ y.R.>XgXmXgX-XK.7.~ b s c T ;.b.}.wXmXmXmXmXmXmXmXmXwX}.b.;.T c s b ~ 7.K.-XgXmXgX:XY.r.` b w w w w ",
"* < 5 0 w M { i.E.<XhXmXfX&XS.2.U f w s H $.z.].wXmXmXmXmXmXmXmXmXwX].z.$.H s w f U 2.S.&XfXmXhX,XR.y.] n w w w w ",
"* < 5 0 w M { u.E.,XhXmXgX-XK.7.~ b s c T ;.b.}.wXmXmXmXmXmXmXmXmXwX}.b.;.T c s b ~ 7.K.-XgXmXhX>XT.t.] n w w w w ",
"* < 5 0 w M [ y.T.:XfXmXkX1X~.f.$.E H T o.r.G.@XtXmXmXmXmXmXmXmXmXtX@XG.r.o.T H E $.f.~.1XkXmXfX;XU.r.' n w w w w ",
"* < 5 0 w M [ r.I.=XdXmXcXwXoXH.p.>.$.;.r.M./.:XpXmXmXmXmXmXmXmXmXpX:X/.M.r.;.$.>.p.H.oXwXcXmXsX*XL.w.` n w w w w ",
"* < 5 0 w m ' q.K.%XpXmXmXfX3X|.I.m.z.b.G./.#X7XgXmXmXmXmXmXmXmXmXgX7X#X/.G.b.z.m.I.|.3XfXmXmXpX$XH.9.) n w w w w ",
"* < 5 0 w m ` 0.G.#XyXmXmXmXfX7X*X X].}.@X:X7XpXzXmXmXmXmXmXmXmXmXzXpX7X:X@X}.]. X*X7XfXmXmXmXyX@XD.7.( n w w w w ",
"* < 5 0 w n _ 8.D.OXrXmXmXmXmXcXdXrXwXwXtXpXgXzXvXmXmXmXmXmXmXmXmXvXzXgXpXtXwXwXrXdXcXmXmXmXmXrXoXA.6.( b w w w w ",
"* < 5 0 w n ) 6.A.XXrXmXmXmXmXmXmXmXmXmXmXmXmXmXmXmXmXmXmXmXmXmXmXmXmXmXmXmXmXmXmXmXmXmXmXmXmXeX.XC.5./ b w w w w ",
"* < 5 0 w n ) 6.A.oXrXmXmXmXmXmXmXmXmXmXmXmXmXmXmXmXmXmXmXmXmXmXmXmXmXmXmXmXmXmXmXmXmXmXmXmXmXrXXXC.5./ b w w w w ",
"* < 5 0 w m _ 9.D.#XpXmXmXmXmXmXmXmXmXmXmXmXmXmXmXmXmXmXmXmXmXmXmXmXmXmXmXmXmXmXmXmXmXmXmXmXmXpX@XS.7.( n w w w w ",
"* < 5 0 w M ' q.J.&XgXmXmXmXmXmXmXmXmXmXmXmXmXmXmXmXmXmXmXmXmXmXmXmXmXmXmXmXmXmXmXmXmXmXmXmXmXgX%XG.8.) n w w w w ",
"= < 5 0 w M ] e.P.-XkXmXmXmXmXmXmXmXmXmXmXmXmXmXmXmXmXmXmXmXmXmXmXmXmXmXmXmXmXmXmXmXmXmXmXmXmXkX=XL.q._ n w w w w ",
"= < 5 0 w M [ e.I.;XlXmXmXmXmXmXmXmXmXmXmXmXmXmXmXmXmXmXmXmXmXmXmXmXmXmXmXmXmXmXmXmXmXmXmXmXmXlX-XL.q.` n w w w w ",
"* < 5 0 w M ' w.L.*XgXmXmXmXmXmXmXmXmXmXmXmXmXmXmXmXmXmXmXmXmXmXmXmXmXmXmXmXmXmXmXmXmXmXmXmXmXgX&XJ.9.) n w w w w ",
"* < 5 0 w n ) 6.A.XXrXmXmXmXmXmXmXmXmXmXmXmXmXmXmXmXmXmXmXmXmXmXmXmXmXmXmXmXmXmXmXmXmXmXmXmXmXeX.XC.5./ b w w w w ",
"* < 5 0 w b Q :.l.!.=XrXkXnXmXmXmXmXmXmXnXzXhXaXyXrXwXqX0X0XqXwXrXyXaXhXzXnXmXmXmXmXmXmXnXkXrX=XQ.k.-.E c w w w w ",
"* < 5 q w x I O.0.n.!.XX,XqXdXcXmXmXmXmXbXdX0X<X$XXX|.[.].].[.|.XX$X<X0XdXbXmXmXmXmXcXdXqX,XXXQ.b.9.X.K z w w w w ",
"* < 6 q w h S ^ #.7.h.A.!.oX2XaXmXmXmXmXcXeX=X`.U.A.M.c.x.x.c.M.A.U.`.=XeXcXmXmXmXmXaX2XoX!.A.h.6.+.Q C h w w w w ",
"* < 6 q w a v F E [ &.6.h.K..X8XcXmXmXmXlX3X].S.s.6.,.=.%.%.=.,.6.s.S.].3XlXmXmXmXcX8X.XK.h.6.&.] T S v a w w w w ",
"* , 5 q w t a h v C L ) =.d.R.=XhXmXmXmXfX&XP.i.%.) Y H D D H Y ) %.i.P.&XfXmXmXmXhX=XR.d.=.) L V v h a t w w w w ",
"* > 4 0 w w w w w e s n E ;.b.{.eXmXmXmXwX[.c.-.T n s w w w w s n T -.c.[.wXmXmXmXeX{.b.;.E n s e w w w w w w w w ",
"& : 3 8 w w w w w w w w n ] y.R.,XhXmXhX,XR.y.] n w w w w w w w w n ] y.R.,XhXmXhX,XR.y.] n w w w w w w w w w w w ",
"% ; 2 6 8 0 w w w w w 0 i L ;.b.`.<X0X<X'.n.:.P p 0 w w w w w w 0 p P :.n.'.<X0X<X`.b.;.L i 0 w w w q 0 9 8 9 9 0 ",
"# * : 2 3 5 6 7 8 7 7 5 5 m ' 8.N.Q.`.Q.N.9.] M 6 5 7 8 9 9 8 7 5 6 M ] 9.N.Q.`.Q.N.8.' m 5 5 7 7 6 5 4 3 3 4 5 5 ",
"O $ * ; : , < 1 1 1 1 < : i F | 3.a.k.a.3.| G a : < 1 2 2 2 2 1 < : a G | 3.a.k.a.3.| F i : < < 1 < , > > : > , , ",
"X O # % & * = = - - = * & 5 g S !  .+...! D h 6 & * = - - - - = * & 6 h D ! ..+. .! S g 5 & * = = = * * & & & & * ",
"  . o O + + @ @ @ @ @ @ + - 5 y k m B M k y 5 - + @ @ # # # # @ @ + - 5 y k M B m k y 5 - + @ @ @ @ @ + + + + @ @ "
};
