/* XPM */
static char *f5ee2747e2c94ec6eee81d5130c5d999VAJOUkBzEF6kG130[] = {
/* columns rows colors chars-per-pixel */
"30 30 138 2 ",
"   c #040303",
".  c #090606",
"X  c #050B05",
"o  c #0B0807",
"O  c #080708",
"+  c #0D0B0A",
"@  c #120D0C",
"#  c #071008",
"$  c #0D130C",
"%  c #0D1B0E",
"&  c #14140E",
"*  c #101B0F",
"=  c #0E1F10",
"-  c #141210",
";  c #1B1514",
":  c #131A11",
">  c #1E1B15",
",  c #221917",
"<  c #241E1A",
"1  c #0F2111",
"2  c #122314",
"3  c #1A2216",
"4  c #152916",
"5  c #162E19",
"6  c #192C19",
"7  c #16301A",
"8  c #1D371E",
"9  c #1A381D",
"0  c #20271B",
"q  c #2A241E",
"w  c #232D1D",
"e  c #271F23",
"r  c #1D3D21",
"t  c #2E2426",
"y  c #342422",
"u  c #332822",
"i  c #3B2826",
"p  c #323325",
"a  c #3F3137",
"s  c #412C2A",
"d  c #4C332F",
"f  c #433233",
"g  c #4F3632",
"h  c #4B393D",
"j  c #523632",
"k  c #533834",
"l  c #593B37",
"z  c #573B38",
"x  c #5E3E3A",
"c  c #1F4323",
"v  c #214726",
"b  c #214926",
"n  c #244D29",
"m  c #26532C",
"M  c #29582F",
"N  c #2B5D31",
"B  c #2D6133",
"V  c #2E6C37",
"C  c #306436",
"Z  c #306837",
"A  c #326D3A",
"S  c #35743D",
"D  c #36783F",
"F  c #56403F",
"G  c #59403D",
"H  c #62423E",
"J  c #473940",
"K  c #4F3F47",
"L  c #503F47",
"P  c #377940",
"I  c #397C42",
"U  c #524046",
"Y  c #5B4344",
"T  c #554248",
"R  c #5C4549",
"E  c #644541",
"W  c #664846",
"Q  c #6E4B46",
"!  c #60474B",
"~  c #62484B",
"^  c #6C4C4B",
"/  c #724E4A",
"(  c #77514C",
")  c #79524D",
"_  c #7B5452",
"`  c #805652",
"'  c #855954",
"]  c #895A54",
"[  c #3C8445",
"{  c #3C8946",
"}  c #3F8748",
"|  c #3E8A49",
" . c #41874A",
".. c #408D4B",
"X. c #43934E",
"o. c #469451",
"O. c #469A51",
"+. c #499D53",
"@. c #4E9D58",
"#. c #47A253",
"$. c #4AA356",
"%. c #49A155",
"&. c #48A454",
"*. c #4BA757",
"=. c #4BA356",
"-. c #4FA15A",
";. c #4CA558",
":. c #4CA758",
">. c #4CA658",
",. c #4DA858",
"<. c #4EAC5A",
"1. c #4EAF5C",
"2. c #4FAC5A",
"3. c #50A15B",
"4. c #52A45C",
"5. c #54A55E",
"6. c #51B15D",
"7. c #51B45E",
"8. c #56A460",
"9. c #56A760",
"0. c #5CB067",
"q. c #53B860",
"w. c #56BE64",
"e. c #5DB268",
"r. c #60B46B",
"t. c #62B66D",
"y. c #63B76E",
"u. c #64BB6F",
"i. c #59C266",
"p. c #5AC669",
"a. c #5BC96A",
"s. c #6AC377",
"d. c #6DC578",
"f. c #71CC7D",
"g. c #73CE7E",
"h. c #74D180",
"j. c #74D081",
"k. c #7BD987",
/* pixels */
"K Y / ( ( ( ( ( ( ) / R U U U U Y / ( ( ( ( ( ( ) / R U U U ",
"R ~ / ( ( ( ( ( ( ) ( ^ R T T T ~ / ) ( ( ( ) ( ( ( ^ R T U ",
"^ / ( ( ( ) ( ( ( ( ( ` _ R T ^ / ( ) ( ( ( ( ( ( ) _ _ ! U ",
") ) ( ( ( ( ( ( ( ( ) ] ] ~ T ^ ) ) ( ( ( ( ( ( ( _ ] ' ! U ",
") ( ( ( ( ( ) ( / ) ) ] ' ~ T ^ ) ( ( ( ) ) ( ( ( ) ' ' ~ U ",
"( ( ( ( ( ( Q / E y . O O O . O . . . . y E Q Q ( ) ' ' R U ",
"( ( ( ( ( ( Q Q E y $ : 2 : 2 4 6 6 4 & y E Q / ( ) ] ' ~ U ",
"( ( ) ( ( E s i y w N P P P P I I I D M 0 y i s G ) ] ' ~ U ",
"( ( ( ( Q s % $ : B #.<.&.O.O.X.O.#.:.O.M 2 = - s / ' ` ! K ",
") ) ( H i > n B N I O.O.O.X.X.X.O.O.+.O.[ V A m , s / ' ~ K ",
"( / Q s @ n | O.[ { { { { | | | | | | X.| o.#.o.v @ g Q R T ",
"E G s ; c | #.| | | { [ [ | | | | | | | | O.+.#. .r ; y J K ",
"f i - b | #.{ X.4.9.@.| [ [ { { | | | | | | | X.O.[ 9 + t a ",
"; - b X.| { { 2.d.g.t.o.[ [ | { | | | | | | | | O.O...b $ ; ",
"  % D *.O.| -.d.k.h.e.O.[ { | | | | | | X.O.$.$.+.:.6.D $   ",
"  1 [ &.| @.u.h.f.0.+.| | X.| | | | | X.O.&.O.O.o.:.q.[ =   ",
"  % D &.X.-.e.u.8. .[ | #.O.X.[ |  ...X.[ B b m I 1.w.I %   ",
". % [ $.X.X.o. .P D [ | X.X. .P D [ .. .b X   X M 7.p.[ %   ",
". = [ $.{ [ D V V S D B m m B D P [ X. .2       r 6.a.[ %   ",
"  4 [ &.[ S S V D [ Z 4 X   5 S  .[ ..[ 7       8 ;.a.[ =   ",
"  7  .+.[ S A S [ ..N       # A X. . .I m 1 X 1 M @.i...1   ",
"o 4 [ X.[ D P D [ X.N .     # A X. .P I D S A A I o.2.I 1 . ",
"i q n  ...X. .P I | V 4 X X 5 S  .D D P [ X.&.-.=.X.P r 0 e ",
"Q j < n [ O. .I } | I A N N A I [ [ P I | ..X.X.o.P r , f J ",
"( Q g q r m M I O.O.O.=.<.:.+.o.X.....X.+. .N v n r u l R U ",
"/ ( ) j , & 3 C O.=.+.+.;.;.+.O.X.o.o.+.;.[ 7 & & q x ) R K ",
"E Q ` ) x l j p M A C M B B B N B B C Z S b q j l x Q Q T U ",
"Y W ) ] ) ) ( s & * * & $ $ $ $ $ $ & * : * s / ) ) E Y U U ",
"U Y E E E E G y o . .   O   O   . .   X . o y G E E Y L U U ",
"U U F G F F G G G G z Y U U U U U G G G G G G G Y z U K U U "
};
