/* XPM */
static char *_14d598a1f7b400886b3facfb739f3ffFU47gF2fOBdoWMhl[] = {
/* columns rows colors chars-per-pixel */
"30 30 210 2 ",
"   c #435066",
".  c #3F4A5F",
"X  c #364052",
"o  c #333C4D",
"O  c #333C4E",
"+  c #374153",
"@  c #404B60",
"#  c #434F65",
"$  c #444F65",
"%  c #455066",
"&  c #465066",
"*  c #465167",
"=  c #424E64",
"-  c #4D5971",
";  c #5F6D8A",
":  c #667593",
">  c #657492",
",  c #657491",
"<  c #5D6B87",
"1  c #4A576E",
"2  c #4C5970",
"3  c #515E77",
"4  c #6A7A99",
"5  c #7182A3",
"6  c #6C7C9C",
"7  c #6A7A9B",
"8  c #6A7A9A",
"9  c #6C7C9D",
"0  c #7282A3",
"q  c #677795",
"w  c #4D5A72",
"e  c #505D76",
"r  c #7081A1",
"t  c #7383A4",
"y  c #424E63",
"u  c #4F5C75",
"i  c #677694",
"p  c #697999",
"a  c #5E6E8D",
"s  c #5B6A89",
"d  c #5C6B8A",
"f  c #606F8E",
"g  c #647391",
"h  c #4C5971",
"j  c #4E5B74",
"k  c #5F6F8E",
"l  c #6F7F9F",
"z  c #3B4559",
"x  c #434E63",
"c  c #505C75",
"v  c #515D77",
"b  c #49556E",
"n  c #47536C",
"m  c #48546D",
"M  c #4C5973",
"N  c #4F5C77",
"B  c #4B5872",
"V  c #4A566F",
"C  c #515E78",
"Z  c #4F5B73",
"A  c #414C61",
"S  c #424D62",
"D  c #55627B",
"F  c #384255",
"G  c #394356",
"H  c #3B4558",
"J  c #3A4457",
"K  c #3A4357",
"L  c #3A4458",
"P  c #434F66",
"I  c #3C4559",
"U  c #525F78",
"Y  c #525E77",
"T  c #515D76",
"R  c #515E76",
"E  c #49556C",
"W  c #445066",
"Q  c #4A566D",
"!  c #515D75",
"~  c #6B7B9A",
"^  c #6D7D9D",
"/  c #6B7A9A",
"(  c #56647F",
")  c #48546B",
"_  c #5A6883",
"`  c #6C7C9B",
"'  c #6D7D9C",
"]  c #657494",
"[  c #647494",
"{  c #657594",
"}  c #596782",
"|  c #48556C",
" . c #5D6C87",
".. c #7080A1",
"X. c #6B7B9B",
"o. c #6F80A0",
"O. c #5A6988",
"+. c #647393",
"@. c #6A7999",
"#. c #576580",
"$. c #596681",
"%. c #687796",
"&. c #61708F",
"*. c #5A6884",
"=. c #627191",
"-. c #5A6989",
";. c #5A6A89",
":. c #5F6F8F",
">. c #617090",
",. c #53617C",
"<. c #465269",
"1. c #4B5870",
"2. c #54627C",
"3. c #586785",
"4. c #5B6A8A",
"5. c #52607B",
"6. c #47546B",
"7. c #55637E",
"8. c #617191",
"9. c #5E6E8E",
"0. c #566582",
"q. c #556481",
"w. c #54627F",
"e. c #53617E",
"r. c #52607D",
"t. c #414C62",
"y. c #54627E",
"u. c #566481",
"i. c #49566E",
"p. c #4A5771",
"a. c #53617D",
"s. c #4A5770",
"d. c #46536A",
"f. c #404B61",
"g. c #3E485D",
"h. c #3E485E",
"j. c #3E495E",
"k. c #3D485D",
"l. c #3A4559",
"z. c #384154",
"x. c #374154",
"c. c #3B455A",
"v. c #47546C",
"b. c #47536B",
"n. c #434F64",
"m. c #424C61",
"M. c #424C62",
"N. c #5C6A85",
"B. c #63718E",
"V. c #62708D",
"C. c #62718D",
"Z. c #62718E",
"A. c #49556D",
"S. c #4B576F",
"D. c #61708C",
"F. c #697997",
"G. c #7181A2",
"H. c #4D5972",
"J. c #6F7FA0",
"K. c #7182A2",
"L. c #606F8F",
"P. c #5D6D8C",
"I. c #5E6D8D",
"U. c #5E6D8C",
"Y. c #617190",
"T. c #7080A0",
"R. c #627190",
"E. c #657595",
"W. c #566482",
"Q. c #5D6C8C",
"!. c #606F8C",
"~. c #4D5A73",
"^. c #62718F",
"/. c #5C6B8B",
"(. c #5D6C8B",
"). c #4A576F",
"_. c #586683",
"`. c #5C6C8B",
"'. c #5A6887",
"]. c #505E79",
"[. c #48546C",
"{. c #596886",
"}. c #596887",
"|. c #5A6987",
" X c #455169",
".X c #424D63",
"XX c #3C475B",
"oX c #455168",
"OX c #48556E",
"+X c #48546E",
"@X c #455068",
"#X c #3E495D",
"$X c #3E495F",
"%X c #4D5A74",
"&X c #4F5D78",
"*X c #394255",
"=X c #394256",
"-X c #637393",
";X c #57657F",
":X c #5F6E8E",
">X c #60708F",
",X c #525F7A",
"<X c #47536A",
"1X c #54627D",
"2X c #576583",
"3X c #4C5972",
"4X c #4D5B75",
"5X c #566583",
"6X c #49566F",
"7X c white",
/* pixels */
"  . X o O O O O O O O O O o + @ . X o O O O O O O O O O O O ",
"# $ % & * * * * * * * * * % % # $ % & * * * * * * * * * % % ",
"= - ; : > , , , , , , , > : < 1 2 ; : > , , , , , , , , , , ",
"= 3 4 5 6 7 7 7 8 7 7 7 9 0 q w e 4 5 6 7 7 7 8 7 7 7 9 r t ",
"y u i p a s d d d d d s f 8 g h j i p a s d d d d d s k p l ",
"z x c v b n m M N B m n V C Z A S c v b n m M N B m n V v D ",
"F G H H J K L @ P . J K L z H G G H H J K L @ P . J K L H I ",
"U Y T T R Y c E W Q ! Y R T T Y Y T T R Y c E W Q ! Y R T T ",
"~ ~ ~ ~ ~ ^ / ( ) _ ` ' ~ ~ ~ ~ ~ ~ ~ ~ ^ / ( ) _ ` ' ~ ~ ~ ",
"] ] ] [ { 6 l } |  ...X.] ] ] ] ] ] [ { 6 l } | < o.X.] ] ] ",
"O.O.O.O.s +.@.#.) $.%.&.O.O.O.O.O.O.O.s +.@.#.) *.4 =.O.O.O.",
"-.;.s s s :.>.,.<.1.2.3.s 4.s -.-.s s s :.>.5.6.7.8.9.s s s ",
"0.q.w.e.e.w.r.V t.. = M e.y.w.u.q.w.e.e.w.r.i.= p.a.w.e.e.e.",
"s.d.f.g.h.j.k.l.z.X x.c.h.h.t.v.b.f.g.h.j.k.L F z g.j.j.j.j.",
"n.y m.A m.m.m.m.S S S m.m.A M.= y m.A m.m.m.m.S m.m.m.m.A A ",
"y 1.N.B.V.V.V.V.C.C.C.V.V.Z._ A.S.N.B.V.V.V.V.C.V.V.V.V.V.D.",
"y e F.r 6 X.X.X.X.X.X.8 6 G.: H.u F.r 6 8 X.X.X.X.X.8 6 J.K.",
"y e %.X.L.P.I.I.U.U.U.P.Y.6 > h u %.X.L.P.U.U.U.U.U.P.>./ T.",
"= j R.E.d W.r.q.O.-.-.O.Q.E.!.1.~.^.] /.O.-.O.O.O.-.O.(.[ p ",
"= )._.`.'.].[.N {.O.}.}.O.d u.| i._.d O.}.}.'.|.'.}.}.O.s d ",
"z .  Xb m .XXXoXN M OXm OX+X@X#X$X XOXOXm b %X&XM OXm m m m ",
"F *XK J J =XG . P . J K J J K *X*XK J J K L @ P . J K J J J ",
"U Y Y R R Y T A.W Q ! Y R R Y Y Y Y R R Y c E W Q ! Y R R R ",
"~ ~ ~ ~ ~ ^ / ( ) _ ` ' ~ ~ ~ ~ ~ ~ ~ ~ ^ / ( ) _ ` ' ~ ~ ~ ",
"] ] ] [ { 6 l } | < o.X.] ] ] ] ] ] [ { 6 l } | < o.X.] ] ] ",
"O.O.O.O.s -X@.;X) *.4 =.O.O.O.O.O.O.O.s -X@.;X) *.4 =.O.O.O.",
"-.-.-.O.-.:X>X,X<X1X>.I.-.O.-.-.-.-.O.-.:X>X,X<X1X>.I.-.O.-.",
"W.W.W.W.W.2Xq.3XoX4Xu.5XW.W.W.W.W.W.W.W.2Xq.3XoX4Xu.5XW.W.W.",
"6X6X6X6X6X6Xi.<.W d.i.6X6X6X6X6X6X6X6X6X6Xi.<.W d.i.6X6X6X6X",
"= = = = = = = # # n.= = = = = = = = = = = = # # n.= = = = = "
};
