/* XPM */
static char *result[] = {
/* columns rows colors chars-per-pixel */
"64 64 35 1 ",
"  c #050403",
". c #373334",
"X c #383837",
"o c #52272F",
"O c #612E38",
"+ c #743643",
"@ c #357A57",
"# c #63605E",
"$ c #767370",
"% c #338159",
"& c #3C8A62",
"* c #3F9066",
"= c #5D9B79",
"- c #48A877",
"; c #49A878",
": c #4EB17E",
"> c #F8F644",
", c #48BA80",
"< c #51BC86",
"1 c #52BC86",
"2 c #51C58A",
"3 c #55C58C",
"4 c #59CF93",
"5 c #61C391",
"6 c #65CB97",
"7 c #75D7A5",
"8 c #8D8A86",
"9 c #A9A5A1",
"0 c #CBC6C1",
"q c #D2D1D1",
"w c gainsboro",
"e c #E7E7E7",
"r c #F3F3F3",
"t c white",
"y c None",
/* pixels */
"yyyyyyyyyyyyyyyyyyyyyyyyyyyyyyyyyyyyyyyyyyyyyyyyyyyyyyyyyyyyyyyy",
"yyyyyyyyyyyyyyyyyyyyyyyyyyyyyyyyyyyyyyyyyyyyyyyyyyyyyyyyyyyyyyyy",
"yyyyyyyyyyyyyyyyyyyyyyyyyyyyyyyyyy--yyyyyyyyyyyyyyyyyyyyyyyyyyyy",
"yyyyyyyyyyyyyyyyyyyyyyyyyyyyyyyy--::yyyyyyyyyyyyyyyyyyyyyyyyyyyy",
"yyyyyyyyyyyyyyyyyyyyyyyyyyyyyyy7411:-yyyyyyyyyyyyyyyyyyyyyyyyyyy",
"yyyyyyyyyyyyyyyyyyyyyyyyyyyyyy74111:-yyyyyyyyyyyyyyyyyyyyyyyyyyy",
"yyyyyyyyyyyyyyyyyyyyyyyyyyyyy741141:-yyyyyyyyyyyyyyyyyyyyyyyyyyy",
"yyyyyyyyyyyyyyyyyyyyyyyyyyyy7411141:-yyyyyyyyyyyyyyyyyyyyyyyyyyy",
"yyyyyyyyyyyyyyyyyyyyyyyyyyy74114441::-yyyyyyyyyyyyyyyyyyyyyyyyyy",
"yyyyyyyyyyyyyyyyyyyyyyyyyyy711444411:-yyyyyyyyyyyyyyyyyyyyyyyyyy",
"yyyyyyyyyyyyyyyyyyyyyyyyyy7444444441:-yyyyyyyyyyyyyyyyyyyyyyyyyy",
"yyyyyyyyyyyyyyyyyyyyyyyyyyXX44444441XXyyyyyyyyyyyyyyyyyyyyyyyyyy",
"yyyyyyyyyyyyyyyyyyyyyyyyyy    44444X  &yyyyyyyyyyyyyyyyyyyyyyyyy",
"yyyyyyyyyyyyyyyyyyyyyyyyy72       X   &yyyyyyyyyyyyyyyyyyyyyyyyy",
"yyyyy44yyyyyyyyyyyyyyyyyy7222XXXXXX444-yyyyyyyyyyyyyyyyyyyyyyyyy",
"yyyy4444yyyyyyyyyyyyyyyyy72222tttt4444:yyyyyyyyyyyyyyyyyyyyyyyyy",
"yyyy4,,,yyyyyyyyyyyyyyyy72222tttttt444:-yyyyyyyyyyyyyyyyyyyyyyyy",
"yyyy4,,,yyyyyyyyyyyyyyyy7222tttttttt44:-yyyyyyyyyyyyyyyyyyyyyyyy",
"yyy44,,,yyyyyyyyyyyyyyyy7222tttttttr<4:-yyyyyyyyyyyyyyyyyyyyyyyy",
"yyy4,55,yyyyyyyyyyyyyyyy722tt    ettr3:-yyyyyyyyyyyyyyyyyyyyyyyy",
"yy445,,5yyyyyyyyyyyyyyy7222tt    qttr;3:-yyyyyyyyyyyyyyyyyyyyyyy",
"yy4,,55,yyyyyyyyyyyyyyy7222tt    qttr;3:-yyyyyyyyyyyyyyyyyyyyyyy",
"yy4,,,,,,yyyyyyyyyyyyyy7222tt    wrre;3:-yyyyyyyyyyyyyyyyyyyyyyy",
"yy4,,,,,,,yyyyyyyyyyyy72222rr;;;;;ewq;3:-yyyyyyyyyyyyyyyyyyyyyyy",
"yy4,,55,,,,yyyyyyyyyyy722222444444;;;34:-yyyyyyyyyyyyyyyyyyyyyyy",
"yy4,5,,5,,,yyyyyyyyyyy722224444444333444:-yyyyyyyyyyyyyyyyyyyyyy",
"yy4,,55,,,,yyyyyyyyyy7222224444444444444:-yyyyyyyyyyyyyyyyyyyyyy",
"yy4,,,,,,,,yyyyyyyyyy7222244444444444444:--yyyyyyyyyyyyyyyyyyyyy",
"yyy4,,,,,,,,yyyyyyyy722224444444444444444:-yyyyyyyyyyyyyyyyyyyyy",
"yyy44,,,,,,,yyyyyyyy722224444444444444444:-yyyyyyyyyyyyyyy4yyyyy",
"yyyy4,,,,,,,yyyyyyyy722244444444444444444:-yyyyyyyyyyyyyy,44yyyy",
"yyyy4,,,,,,,yyyyyyy72222444444444444444444:-yyyyyyyyyyyyy,,4yyyy",
"yyy44,,,,,,,yyyyyy622224444444444444444444:-yyyyyyyyyyyyy,,4yyyy",
"yyy4,,,,,,,,yyyyyy622244444444444444444444:-yyyyyyyyyyyy,,,4yyyy",
"yyy4,,,5,,,,yyyyyy622244444444444444444444:-yyyyyyyyyyy,,,,44yyy",
"yyy4,,5,5,,,yyyyyy62244444449    00944444444-yyyyyyyyy,,,,,44yyy",
"yyy4,,,5,,,,,yyyyy6224444 809    009  0&&&44-yyyyyyyyy,,,5,44yyy",
"yyy44,,,,,,,,yyyyy62444    89    909  009&44-yyyyyyyy,,,5,544yyy",
"yyyy4,,,,,,,,,yyy6224409   $9    98   909 &4-yyyyyyy,,,,,5,4yyyy",
"yyyy44,,,,,,,,,yy6244809    8    8    98   @-%,yyyy,,,,,,,44yyyy",
"yyyyy44,,,,,,5,,y624  8#      o       8    @-%,,,,,,,,,,,44yyyyy",
"yyyyyy44,,,,5,5,y744         O+oo          @-%,,,,,,5,,444yyyyyy",
"yyyyyyy4,,,,5,5,,744      8  O0+Oo  9      @-%,,,,,5,544yyyyyyyy",
"yyyyyyy4,,,,,5,,,744     89  O00O+o 90     @-%,,,,,,544yyyyyyyyy",
"yyyyyyy4,,,5,,,,,744    809  O000+o 900    @-*%,,,,,44yyyyyyyyyy",
"yyyyyyy4,,5,5,,,,7444   0088 O000+o  90   @---*,,4444yyyyyyyyyyy",
"yyyyyyy44,5,5,,,,7444@@@@@@@@@@@@@@@@@@@@@----*,,44yyyyyyyyyyyyy",
"yyyyyyyy44,5,,,,,....4444444444444444444......*%,4yyyyyyyyyyyyyy",
"yyyyyyyy444,,,,,,..............................%,4yyyyyyyyyyyyyy",
"yyyyyyyy44444,,,,..............................%,,,yyyyyyyyyyyyy",
"yyyyyyyyyyyy44,,,,,.........>>>>>>>..........%%%,,,,,yyyyyyyyyyy",
"yyyyyyyy,,,,,44=,,,........>>.....>>>.......%,,,,,,,,,yyyyyyyyyy",
"yyyyyyy,,,,,,,,,,,,,,,,,,,,,,,,,,,,,,,,,,,,,,,,,,,,,,,,,yyyyyyyy",
"yyyyy,,,,,,,,,,,,,,,,,,,,,,,,,,,,,,,,,,,,,,,,,,,,,,,,,,,,,yyyyyy",
"yyy,,,,,,,,,,,,,4,,,,,,,,,4444444,,,,,,,4444444,,,,,,,,,,,,yyyyy",
"y,,,,,,,,,,,44,44,,,,,,,,444yyyy444,,,,,,,44yy44,,,,,,,,,,,yyyyy",
"y,,,,,,44444y444,,,,,,,,,4yyyyyyyy44,,,,,,,yyyy4,,,,,,,55,,yyyyy",
",444444yyyyy,,,,,,,,444444yyyyyyyyy44,,,,,,yyyy444,,,,5,,5,yyyyy",
"4yyyyyyyyyy,,,,,,4444yyyyyyyyyyyyyyy44,,,,,,yyyyy444,,5,,54yyyyy",
"yyyyyyyyyy,,,,,444,yyyyyyyyyyyyyyyyyy4,,,,,,,4yyyyy444,55,44yyyy",
"yyyyyyyyy,,,4444yyyyyyyyyyyyyyyyyyyyy44,,,,,,4yyyyyyy4444,,4yyyy",
"yyyyyyyyy4444yyyyyyyyyyyyyyyyyyyyyyyyy44,,,444yyyyyyyyyy4444yyyy",
"yyyyyyyyyyyyyyyyyyyyyyyyyyyyyyyyyyyyyyy444444yyyyyyyyyyyyy44yyyy",
"yyyyyyyyyyyyyyyyyyyyyyyyyyyyyyyyyyyyyyyyy44yyyyyyyyyyyyyyyyyyyyy"
};
