/* XPM */
static char *result[] = {
/* columns rows colors chars-per-pixel */
"64 64 34 1 ",
"  c #050403",
". c #1D1B2B",
"X c #222034",
"o c #3F3F74",
"O c #535453",
"+ c #595757",
"@ c #5E5A59",
"# c #5D5E5E",
"$ c #615D5C",
"% c #6A6666",
"& c #696A6A",
"* c #7F7A7A",
"= c #AC3232",
"- c #A3531D",
"; c #DF7126",
": c #847E7D",
"> c #6ABE30",
", c #847E87",
"< c #878181",
"1 c #989292",
"2 c #AEA7A7",
"3 c #A6A1A8",
"4 c #ACABA8",
"5 c #B4ADAC",
"6 c #BAB2B2",
"7 c #C2BABA",
"8 c #C2BBBA",
"9 c #BEBBC0",
"0 c #CFC7C6",
"q c #D2CACA",
"w c #D7CFCE",
"e c #EEE5E5",
"r c white",
"t c None",
/* pixels */
"tttttttttttttttttttttttttttttttttttttttttttttttttttttttttttttttt",
"tttttttttttttttttttttttttttttttttttttttttttttttttttttttttttttttt",
"tttttttttttttttttttttttttttttttttttttttttttttttttttttttttttttttt",
"tttttttttttttttttttttttttttttttttttttttttttttttttttttttttttttttt",
"tttttttttttttttttttttttttttttttttttttttttttttttttttttttttttttttt",
"tttttttttttttttttttttttttttttttttttttttttttttttttttttttttttttttt",
"tttttttttttttttttttttttttttttttttttttttttttttttttttttttttttttttt",
"tttttttttttttttttttttttttttttttttttttttttttttttttttttttttttttttt",
"tttttttttttttttttttttttttttttttttttttttttttttttttttttttttttttttt",
"tttttttttttttttttttttttttttttttttttttttttttttttttttttttttttttttt",
"tttttttttttttttttttttttttttttttttttttttttttttttttttttttttttttttt",
"tttttttttttttttttttttttttttttttttttttttttttttttttttttttttttttttt",
"tttttttttttttttttttttttttttttttttttttttttttttttttttttttttttttttt",
"tttttttttttttttttttttttttttttttttttttttttttttttttttttttttttttttt",
"tttttttttttttttttttttttttttttttttttttttttttttttttttttttttttttttt",
"tttttttttttttttttttttttttttttttttttttttttttttttttttttttttttttttt",
"tttttttttttttttttttttttttttttttttttttttttttttttttttttttttttttttt",
"tttttttttttttttttttttttttttttttttttttttttttttttttttttttttttttttt",
"tttttttttttttttttttttttttttttttttttttttttttttttttttttttttttttttt",
"tttttttttttttttttttttttttttttttttttttttttttttttttttttttttttttttt",
"tttttttttttttttttttttttttttttttttttttttttttttttttttttttttttttttt",
"tttttttttttttttttttttttttttttttttttttttttttttttttttttttttttttttt",
"ttttttttttttttttttttttttt,39,,,,93tttttttttttttttttttttttttttttt",
"tttttttttttttttttttttttt,99,,,,,,93,tttttttttttttttttttttttttttt",
"tttttttttttttttttttttt,,,,,,,,,,,,93,ttttttttttttttttttttttttttt",
"ttttttttttttttttttttt,,,,,,,,,,,,,,,,ttttttttttttttttttttttttttt",
"ttttttttttttttttttttt,,,,         ,,,,tttttttttttttttttttttttttt",
"ttttttttttttttttttttt,,  eeeXXX.7w  ,,tttttttttttttttttttttttttt",
"ttttttttttttttttttttt, eeeeeXXX.77e ,,tttttttttttttttttttttttttt",
"ttttttttttttttttttttt eeeeee00XXX7ee  tttttttttttttttttttttttttt",
"ttttttttttttttttttttteeeeee000XXX7eeeetttttttttttttttttttttttttt",
"tttttttttttttttttttt8eeeee0000XXX7eeee8ttttttttttttttttttttttttt",
"ttttttttttttttttttttweeee00000XXX7eeee8ttttttttttttttttttttttttt",
"tttttttttttttttttttt8eee00000XXX77777ewttttttttttttttttttttttttt",
"ttttttttttttttttttttte0000055:::555777tttttttttttttttttttttttttt",
"ttttttttttttttttttttt00005555$$$555577tttttttttttttttttttttttttt",
"ttttttttttttttttttttt00055www222www;5*ettttttttttttttttttttttttt",
"tttttttttttttttttttt0005wwwww@@@www;5*ettttttttttttttttttttttttt",
"ttttttttttttttttttttr5e5wwwww***www;5*ettttttttttttttttttttttttt",
"ttttttttttttttttttt0r5e5wwwww@@@ww--5*50tttttttttttttttttttttttt",
"ttttttttttttttttttt0r5e5wwwww***ww225*50tttttttttttttttttttttttt",
"ttttttttttttttttttt0r5e5oooww@@@wwww5*50tttttttttttttttttttttttt",
"ttttttttttttttttttt0r5e5>,=ww***wwww5*50tttttttttttttttttttttttt",
"tttttttttttttttttt0rr5e5wwwww@@@wwww5*50tttttttttttttttttttttttt",
"tttttttttttttttttt0rr5ee5wwww***www52250tttttttttttttttttttttttt",
"tttttttttttttttttt0rr5ee555ww@@@ww55*250tttttttttttttttttttttttt",
"tttttttttttttttttt0rr5eeee555:::555*2e50tttttttttttttttttttttttt",
"tttttttttttttttttt0rr5eeee*********2ee50tttttttttttttttttttttttt",
"tttttttttttttttttt0rr5eeeeeeeeeeeeeqqq50tttttttttttttttttttttttt",
"tttttttttttttttttt&rrteeeeeeeqqqqqqqq500tttttttttttttttttttttttt",
"tttttttttttttttttt#&#t111<<<<<<<<<<<55&&tttttttttttttttttttttttt",
"ttttttttttttttttttt##tt66%%%%%%%%%%%t#&Otttttttttttttttttttttttt",
"tttttttttttttttttttttttqqqqqqqqqqqqqtOOttttttttttttttttttttttttt",
"ttttttttttttttttttttttt4eeeeetqeeeeqtttttttttttttttttttttttttttt",
"ttttttttttttttttttttttt4eeeeetqeeeeqtttttttttttttttttttttttttttt",
"ttttttttttttttttttttttt4eeeeetqeeeeqtttttttttttttttttttttttttttt",
"ttttttttttttttttttttttt4eeeeett4eeeqtttttttttttttttttttttttttttt",
"ttttttttttttttttttttttt4eeeeett4eeeqtttttttttttttttttttttttttttt",
"ttttttttttttttttttttttt4eeeeett4eeeqtttttttttttttttttttttttttttt",
"ttttttttttttttttttttttt4eeeeett4eeqttttttttttttttttttttttttttttt",
"tttttttttttttttttttttttt4eeeett4eeqttttttttttttttttttttttttttttt",
"tttttttttttttttttttttttt4444et444qqttttttttttttttttttttttttttttt",
"ttttttttttttttttttttttttt++++t+++++ttttttttttttttttttttttttttttt",
"ttttttttttttttttttttttttt++++t+++++ttttttttttttttttttttttttttttt"
};
