/* XPM */
static char *result[] = {
/* columns rows colors chars-per-pixel */
"64 64 37 1 ",
"  c black",
". c #222034",
"X c #3C3B3A",
"o c #3F3F74",
"O c #444342",
"+ c #474646",
"@ c #4E4C4C",
"# c #444253",
"$ c #515050",
"% c #595757",
"& c gray36",
"* c #615F6D",
"= c #646160",
"- c #646066",
"; c #6B6565",
": c #696A6A",
"> c #736F6E",
", c #736E75",
"< c #787272",
"1 c #AC3232",
"2 c #974D1B",
"3 c #B9451D",
"4 c #DF7126",
"5 c #847F7F",
"6 c #6ABE30",
"7 c #ABAA30",
"8 c #C1C036",
"9 c #F8F644",
"0 c #847E87",
"q c #989292",
"w c #A8A4AA",
"e c #ACABA8",
"r c #B4ADAC",
"t c #C1BFC3",
"y c #CFC7C6",
"u c #EEE5E5",
"i c None",
/* pixels */
"iiiiiiiiiiiiiiiiiiiiiiiiiiiiiiiiiiiiiiiiiiiiiiiiiiiiiiiiiiiiiiii",
"iiiiiiiiiiiiiiiiiiiiiiiiiiiiiiiiiiiiiiiiiiiiiiiiiiiiiiiiiiiiiiii",
"iiiiiiiiiiiiiiiiiiiiiiiiiiiiiiiiiiiiiiiiiiiiiiiiiiiiiiiiiiiiiiii",
"iiiiiiiiiiiiiiiiiiiiiiiiiiiiiiiiiiiiiiiiiiiiiiiiiiiiiiiiiiiiiiii",
"iiiiiiiiiiiiiiiiiiiiiiiiiiiiiiiiiiiiiiiiiiiiiiiiiiiiiiiiiiiiiiii",
"iiiiiiiiiiiiiiiiiiiiiiiiiiiiiiiiiiiiiiiiiiiiiiiiiiiiiiiiiiiiiiii",
"iiiiiiiiiiiiiiiiiiiiiiiiiiiiiiiiiiiiiiiiiiiiiiiiiiiiiiiiiiiiiiii",
"iiiiiiiiiiiiiiiiiiiiiiiiiiiiiiiiiiiiiiiiiiiiiiiiiiiiiiiiiiiiiiii",
"iiiiiiiiiiiiiiiiiiiiiiiiiiiiiiiiiiiiiiiiiiiiiiiiiiiiiiiiiiiiiiii",
"iiiiiiiiiiiiiiiiiiiiiiiiiiiiiiiiiiiiiiiiiiiiiiiiiiiiiiiiiiiiiiii",
"iiiiiiiiiiiiiiiiiiiiiiiiiiiiiiiiiiiiiiiiiiiiiiiiiiiiiiiiiiiiiiii",
"iiiiiiiiiiiiiiiiiiiiiiiiiiiiiiiiiiiiiiiiiiiiiiiiiiiiiiiiiiiiiiii",
"iiiiiiiiiiiiiiiiiiiiiiiiiiiiiiiiiiiiiiiiiiiiiiiiiiiiiiiiiiiiiiii",
"iiiiiiiiiiiiiiiiiiiiiiiiiiiiiiiiiiiiiiiiiiiiiiiiiiiiiiiiiiiiiiii",
"iiiiiiiiiiiiiiiiiiiiiiiiiiiiiiiiiiiiiiiiiiiiiiiiiiiiiiiiiiiiiiii",
"iiiiiiiiiiiiiiiiiiiiiiiiiiiiiiiiiiiiiiiiiiiiiiiiiiiiiiiiiiiiiiii",
"iiiiiiiiiiiiiiiiiiiiiiiiiiiiiiiiiiiiiiiiiiiiiiiiiiiiiiiiiiiiiiii",
"iiiiiiiiiiiiiiiiiiiiiiiiiiiiiiiiiiiiiiiiiiiiiiiiiiiiiiiiiiiiiiii",
"iiiiiiiiiiiiiiiiiiiiiiiiiiiiiiiiiiiiiiiiiiiiiiiiiiiiiiiiiiiiiiii",
"iiiiiiiiiiiiiiiiiiiiiiiiiiiiiiiiiiiiiiiiiiiiiiiiiiiiiiiiiiiiiiii",
"iiiiiiiiiiiiiiiiiiiiiiiiiiiiiuuuuuuuuuuiiiiiiiiiiiiiiiiiiiiiiiii",
"iiiiiiiiiiiiiiiiiiiiiiiiiiii      yyuuuuiiiiiiiiiiiiiiiiiiiiiiii",
"iiiiiiiiiiiiiiiiiiiiiiiiiii ------ yyuuuu....iiiiiiiiiiiiiiiiiii",
"iiiiiiiiiiiiiiiiiiiiiiiiii ,00000,- yyuuu###..iiiiiiiiiiiiiiiiii",
"iiiiiiiiiiiiiiiiiiiiiiiiii,0000000,- yyuuuii*..iiiiiiiiiiiiiiiii",
"iiiiiiiiiiiiiiiiiiiiiiiiii000000000-- yyuuui**.iiiiiiiiiiiiiiiii",
"iiiiiiiiiiiiiiiiiiiiiiiiii0w000000000- yuuuii*.iiiiiiiiiiiiiiiii",
"iiiiiiiiiiiiiiiiiiiiiiiiii0t000000000-- yuuii*.iiiiiiiiiiiiiiiii",
"iiiiiiiiiiiiiiiiiiiiiiiiii0tt00000000,- yuuuuuuuiiiiiiiiiiiiiiii",
"iiiiiiiiiiiiiiiiiiiiiiiiii00t00000000,- yyuuuuuuuiiiiiiiiiiiiiii",
"iiiiiiiiiiiiiiiiiiiiiiiiii00000000000,,yyry uuuuuriiiiiiiiiiiiii",
"iiiiiiiiiiiiiiiiiiiiiiiiiii00w0000000,,yyuu uuuuuriiiiiiiiiiiiii",
"iiiiiiiiiiiiiiiiiiiiiiiiiiii0tw0000,,,yyuuu uuu4uriiiiiiiiiiiiii",
"iiiiiiiiiiiiiiiiiiiiiiiiiiiii0tw00,,yyuuuuu uu42uriiiiiiiiiiiiii",
"iiiiiiiiiiiiiiiiiiiiiiiiiiiiii00,yyyuuuuuuu u422uriiiiiiiiiiiiii",
"iiiiiiiiiiiiiiiiiiiiiiiiiiiiiiyyyyyuuuuuuuu uuuuuriiiiiiiiiiiiii",
"iiiiiiiiiiiiiiiiiiiiiiiiiiiiiiiuuuuuuur5uuu uuuuuriiiiiiiiiiiiii",
"iiiiiiiiiiiiiiiiiiiiiiiiiiiiiiiu333uuur5uuu uuuuyiiiiiiiiiiiiiii",
"iiiiiiiiiiiiiiiiiiiiiiiiiiiiiiiuuuuuuur5uuu uuuuyiiiiiiiiiiiiiii",
"iiiiiiiiiiiiiiiiiiiiiiiiiiiiiiiuuuuuuur5uuu ooouyiiiiiiiiiiiiiii",
"iiiiiiiiiiiiiiiiiiiiiiiiiiiiiii>uuuuuur5uuu 601uyiiiiiiiiiiiiiii",
"iiiiiiiiiiiiiiiiiiiiiiiiiiiiiiiq=uuuuur5uuu uuuuyiiiiiiiiiiiiiii",
"iiiiiiiiiiiiiiiiiiiiiiiiiiiiiiiq=uuuuur55uu uuuuyiiiiiiiiiiiiiii",
"iiiiiiiiiiiiiiiiiiiiiiiiiiiiiiiq=uuuuurr5uu  uriiiiiiiiiiiiiiiii",
"iiiiiiiiiiiiiiiiiiiiiiiiiiiiiiiq=yyuuuur>uuu riiiiiiiiiiiiiiiiii",
"iiiiiiiiiiiiiiiiiiiiiiiiiiiiiiiq=yyyyuuy>uuu iiiiiiiiiiiiiiiiiii",
"iiiiiiiiiiiiiiiiiiiiiiiiiiiiiii&$yyyyyuu>quuiiiiiiiiiiiiiiiiiiii",
"iiiiiiiiiiiiiiiiiiiiiiiiiiiiiii$&yyyyyyyr5u:iiiiiiiiiiiiiiiiiiii",
"iiiiiiiiiiiiiiiiiiiiiiiiiiiiiiii$yyyyyyyy5:$iiiiiiiiiiiiiiiiiiii",
"iiiiiiiiiiiiiiiiiiiiiiiiiiiiiiii<;;;789qqq$+iiiiiiiiiiiiiiiiiiii",
"iiiiiiiiiiiiiiiiiiiiiiiiiiiiiiiiiuuuuuuuuuuyiiiiiiiiiiiiiiiiiiii",
"iiiiiiiiiiiiiiiiiiiiiiiiiiiiiiiiiiruueuuuuyiiiiiiiiiiiiiiiiiiiii",
"iiiiiiiiiiiiiiiiiiiiiiiiiiiiiiiiiiruueuuuyiiiiiiiiiiiiiiiiiiiiii",
"iiiiiiiiiiiiiiiiiiiiiiiiiiiiiiiiiiruueuuuyiiiiiiiiiiiiiiiiiiiiii",
"iiiiiiiiiiiiiiiiiiiiiiiiiiiiiiiiiirueeuuuyiiiiiiiiiiiiiiiiiiiiii",
"iiiiiiiiiiiiiiiiiiiiiiiiiiiiiiiiiirueuuuuyiiiiiiiiiiiiiiiiiiiiii",
"iiiiiiiiiiiiiiiiiiiiiiiiiiiiiiiiiirueuuuuyiiiiiiiiiiiiiiiiiiiiii",
"iiiiiiiiiiiiiiiiiiiiiiiiiiiiiiiiiirueeuuuyiiiiiiiiiiiiiiiiiiiiii",
"iiiiiiiiiiiiiiiiiiiiiiiiiiiiiiiiiiryyeuuuyiiiiiiiiiiiiiiiiiiiiii",
"iiiiiiiiiiiiiiiiiiiiiiiiiiiiiiiiiirrreuuuyiiiiiiiiiiiiiiiiiiiiii",
"iiiiiiiiiiiiiiiiiiiiiiiiiiiiiiiii@@@Xeyy@@iiiiiiiiiiiiiiiiiiiiii",
"iiiiiiiiiiiiiiiiiiiiiiiiiiiiiiiii%%%X@@@%%iiiiiiiiiiiiiiiiiiiiii",
"iiiiiiiiiiiiiiiiiiiiiiiiiiiiiiiiiiiiiXX%%Oiiiiiiiiiiiiiiiiiiiiii",
"iiiiiiiiiiiiiiiiiiiiiiiiiiiiiiiiiiiiiiiiiiiiiiiiiiiiiiiiiiiiiiii"
};
