/* XPM */
static char *result[] = {
/* columns rows colors chars-per-pixel */
"64 64 30 1 ",
"  c gray15",
". c gray16",
"X c #3A3939",
"o c #3F3E3E",
"O c #7B7A22",
"+ c #524E54",
"@ c #595757",
"# c #58555A",
"$ c #5A575D",
"% c #5D595F",
"& c gray36",
"* c #646066",
"= c #666269",
"- c #746F77",
"; c #B9451D",
": c #847F7F",
"> c #AFAD30",
", c #F8F644",
"< c #847E87",
"1 c #939393",
"2 c #989292",
"3 c gray60",
"4 c #A8A1A1",
"5 c #A8A4AA",
"6 c #C1BFC3",
"7 c #C1C1C1",
"8 c #C5C5C5",
"9 c #CFC7C6",
"0 c #EEE5E5",
"q c None",
/* pixels */
"qqqqqqqqqqqqqqqqqqqqqqqqqqqqqqqqqqqqqqqqqqqqqqqqqqqqqqqqqqqqqqqq",
"qqqqqqqqqqqqqqqqqqqqqqqqqqqqqqqqqqqqqqqqqqqqqqqqqqqqqqqqqqqqqqqq",
"qqqqqqqqqqqqqqqqqqqqqqqqqqqqqqqqqqqqqqqqqqqqqqqqqqqqqqqqqqqqqqqq",
"qqqqqqqqqqqqqqqqqqqqqqqqqqqqqqqqqqqqqqqqqqqqqqqqqqqqqqqqqqqqqqqq",
"qqqqqqqqqqqqqqqqqqqqqqqqqqqqqqqqqqqqqqqqqqqqqqqqqqqqqqqqqqqqqqqq",
"qqqqqqqqqqqqqqqqqqqqqqqqqqqqqqqqqqqqqqqqqqqqqqqqqqqqqqqqqqqqqqqq",
"qqqqqqqqqqqqqqqqqqqqqqqqqqqqqqqqqqqqqqqqqqqqqqqqqqqqqqqqqqqqqqqq",
"qqqqqqqqqqqqqqqqqqqqqqqqqqqqqqqqqqqqqqqqqqqqqqqqqqqqqqqqqqqqqqqq",
"qqqqqqqqqqqqqqqqqqqqqqqqqqqqqqqqqqqqqqqqqqqqqqqqqqqqqqqqqqqqqqqq",
"qqqqqqqqqqqqqqqqqqqqqqqqqqqqqqqqqqqqqqqqqqqqqqqqqqqqqqqqqqqqqqqq",
"qqqqqqqqqqqqqqqqqqqqqqqqqqqqqqqqqqqqqqqqqqqqqqqqqqqqqqqqqqqqqqqq",
"qqqqqqqqqqqqqqqqqqqqqqqqqqqqqqqqqqqqqqqqqqqqqqqqqqqqqqqqqqqqqqqq",
"qqqqqqqqqqqqqqqqqqqqqqqqqqqqqqqqqqqqqqqqqqqqqqqqqqqqqqqqqqqqqqqq",
"qqqqqqqqqqqqqqqqqqqqqqqqqqqqqqqqqqqqqqqqqqqqqqqqqqqqqqqqqqqqqqqq",
"qqqqqqqqqqqqqqqqqqqqqqqqqqqqqqqqqqqqqqqqqqqqqqqqqqqqqqqqqqqqqqqq",
"qqqqqqqqqqqqqqqqqqqqqqqqqqqqqqqqqqqqqqqqqqqqqqqqqqqqqqqqqqqqqqqq",
"qqqqqqqqqqqqqqqqqqqqqqqqqqqqqqqqqqqqqqqqqqqqqqqqqqqqqqqqqqqqqqqq",
"qqqqqqqqqqqqqqqqqqqqqqqqqq000000000qqqqqqqqqqqqqqqqqqqqqqqqqqqqq",
"qqqqqqqqqqqqqqqqqqqqqqq000000000000000qqqqqqqqqqqqqqqqqqqqqqqqqq",
"qqqqqqqqqqqqqqqqqqqqqq00000000000000000qqqqqqqqqqqqqqqqqqqqqqqqq",
"qqqqqqqqqqqqqqqqqqqqqq000999999999999900qqqqqqqqqqqqqqqqqqqqqqqq",
"qqqqqqqqqqqqqqqqqqqqq00999999999999999900qqqqqqqqqqqqqqqqqqqqqqq",
"qqqqqqqqqqqqqqqqqqqq0099**************990qqqqqqqqqqqqqqqqqqqqqqq",
"qqqqqqqqqqqqqqqqqqqq099**<<<<<<<<<<<<**900qqqqqqqqqqqqqqqqqqqqqq",
"qqqqqqqqqqqqqqqqqqqq99**<<566<<<<<<<<<*999qqqqqqqqqqqqqqqqqqqqqq",
"qqqqqqqqqqqqqqqqqqqq99**<56<<<<<<<<<<<**99qqqqqqqqqqqqqqqqqqqqqq",
"qqqqqqqqqqqqqqqqqqqq9**<56<<<5<<<<<<<<-*99qqqqqqqqqqqqqqqqqqqqqq",
"qqqqqqqqqqqqqqqqqqqq**<<5<<566<<<<<<<--**9qqqqqqqqqqqqqqqqqqqqqq",
"qqqqqqqqqqqqqqqqqqqq9*<<<<<6<<<<<<<<----+9qqqqqqqqqqqqqqqqqqqqqq",
"qqqqqqqqqqqqqqqqqqqq9*<<<<<<<<<<<<<-----+9qqqqqqqqqqqqqqqqqqqqqq",
"qqqqqqqqqqqqqqqqqqqq9*<<<<<<<<<<<<-----+*9qqqqqqqqqqqqqqqqqqqqqq",
"qqqqqqqqqqqqqqqqqqqqq*<<<<<<<<<<------+%9qqqqqqqqqqqqqqqqqqqqqqq",
"qqqqqqqqqqqqqqqqqqqqq9*<<<<<<<-------+*99qqqqqqqqqqqqqqqqqqqqqqq",
"qqqqqqqqqqqqqqqqqqqqq99**<<<-----$$$###9qqqqqqqqqqqqqqqqqqqqqqqq",
"qqqqqqqqqqqqqqqqqqqqq0999***=$$$$$**3333qqqqqqqqqqqqqqqqqqqqqqqq",
"qqqqqqqqqqqqqqqqqqqqq0009988******8888899qqqqqqqqqqqqqqqqqqqqqqq",
"qqqqqqqqqqqqqqqqqqqqq00099998888889999990qqqqqqqqqqqqqqqqqqqqqqq",
"qqqqqqqqqqqqqqqqqqqqq00000000000000000000qqqqqqqqqqqqqqqqqqqqqqq",
"qqqqqqqqqqqqqqqqqqqq1000000000000000000007qqqqqqqqqqqqqqqqqqqqqq",
"qqqqqqqqqqqqqqqqqqqq10007:0000000000000007qqqqqqqqqqqqqqqqqqqqqq",
"qqqqqqqqqqqqqqqqqqqq10007:0000000;;;;:0007qqqqqqqqqqqqqqqqqqqqqq",
"qqqqqqqqqqqqqqqqqqqq10007:00000004;;;:0007qqqqqqqqqqqqqqqqqqqqqq",
"qqqqqqqqqqqqqqqqqqqq10007:00000000444:0007qqqqqqqqqqqqqqqqqqqqqq",
"qqqqqqqqqqqqqqqqqqqq10007:00000000001:0007qqqqqqqqqqqqqqqqqqqqqq",
"qqqqqqqqqqqqqqqqqqqq10007:00000000001:0007qqqqqqqqqqqqqqqqqqqqqq",
"qqqqqqqqqqqqqqqqqqqq10007:00000000001:0097qqqqqqqqqqqqqqqqqqqqqq",
"qqqqqqqqqqqqqqqqqqqq10007:00000000001:0997qqqqqqqqqqqqqqqqqqqqqq",
"qqqqqqqqqqqqqqqqqqqq11111:40000000991:9997qqqqqqqqqqqqqqqqqqqqqq",
"qqqqqqqqqqqqqqqqqqqq&&&&&:40000099971:9977qqqqqqqqqqqqqqqqqqqqqq",
"qqqqqqqqqqqqqqqqqqqqq&&&::40000999222:77&&qqqqqqqqqqqqqqqqqqqqqq",
"qqqqqqqqqqqqqqqqqqqqqq&&:222,,>>O2222:&&&&qqqqqqqqqqqqqqqqqqqqqq",
"qqqqqqqqqqqqqqqqqqqqqqqq:7222>>O22971::&&&qqqqqqqqqqqqqqqqqqqqqq",
"qqqqqqqqqqqqqqqqqqqqqqqq:799999999971qqqqqqqqqqqqqqqqqqqqqqqqqqq",
"qqqqqqqqqqqqqqqqqqqqqqqqq799999999991qqqqqqqqqqqqqqqqqqqqqqqqqqq",
"qqqqqqqqqqqqqqqqqqqqqqqqq799977799991qqqqqqqqqqqqqqqqqqqqqqqqqqq",
"qqqqqqqqqqqqqqqqqqqqqqqqq79997qq79991qqqqqqqqqqqqqqqqqqqqqqqqqqq",
"qqqqqqqqqqqqqqqqqqqqqqqqq79997qq79991qqqqqqqqqqqqqqqqqqqqqqqqqqq",
"qqqqqqqqqqqqqqqqqqqqqqqqq79997qq79991qqqqqqqqqqqqqqqqqqqqqqqqqqq",
"qqqqqqqqqqqqqqqqqqqqqqqqq79997qq79991qqqqqqqqqqqqqqqqqqqqqqqqqqq",
"qqqqqqqqqqqqqqqqqqqqqqqqq77777qq77771qqqqqqqqqqqqqqqqqqqqqqqqqqq",
"qqqqqqqqqqqqqqqqqqqqqqqqq@@@XXqqXo@@@qqqqqqqqqqqqqqqqqqqqqqqqqqq",
"qqqqqqqqqqqqqqqqqqqqqqqqq@@@XXqqXoo@@Xqqqqqqqqqqqqqqqqqqqqqqqqqq",
"qqqqqqqqqqqqqqqqqqqqqqqqXXXXXXqq oooo.qqqqqqqqqqqqqqqqqqqqqqqqqq",
"qqqqqqqqqqqqqqqqqqqqqqqqX     qq     qqqqqqqqqqqqqqqqqqqqqqqqqqq"
};
