/* XPM */
static char *result[] = {
/* columns rows colors chars-per-pixel */
"64 64 37 1 ",
"  c black",
". c #222034",
"X c #3C3B3A",
"o c #3F3F74",
"O c #444342",
"+ c #474646",
"@ c #4E4C4C",
"# c #444253",
"$ c #515050",
"% c #595757",
"& c gray36",
"* c #615F6D",
"= c #646160",
"- c #646066",
"; c #6B6565",
": c #696A6A",
"> c #736F6E",
", c #736E75",
"< c #787272",
"1 c #AC3232",
"2 c #974D1B",
"3 c #B9451D",
"4 c #DF7126",
"5 c #847F7F",
"6 c #6ABE30",
"7 c #ABAA30",
"8 c #C1C036",
"9 c #F8F644",
"0 c #847E87",
"q c #989292",
"w c #A8A4AA",
"e c #ACABA8",
"r c #B4ADAC",
"t c #C1BFC3",
"y c #CFC7C6",
"u c #EEE5E5",
"i c None",
/* pixels */
"iiiiiiiiiiiiiiiiiiiiiiiiiiiiiiiiiiiiiiiiiiiiiiiiiiiiiiiiiiiiiiii",
"iiiiiiiiiiiiiiiiiiiiiiiiiiiiiiiiiiiiiiiiiiiiiiiiiiiiiiiiiiiiiiii",
"iiiiiiiiiiiiiiiiiiiiiiiiiiiiiiiiiiiiiiiiiiiiiiiiiiiiiiiiiiiiiiii",
"iiiiiiiiiiiiiiiiiiiiiiiiiiiiiiiiiiiiiiiiiiiiiiiiiiiiiiiiiiiiiiii",
"iiiiiiiiiiiiiiiiiiiiiiiiiiiiiiiiiiiiiiiiiiiiiiiiiiiiiiiiiiiiiiii",
"iiiiiiiiiiiiiiiiiiiiiiiiiiiiiiiiiiiiiiiiiiiiiiiiiiiiiiiiiiiiiiii",
"iiiiiiiiiiiiiiiiiiiiiiiiiiiiiiiiiiiiiiiiiiiiiiiiiiiiiiiiiiiiiiii",
"iiiiiiiiiiiiiiiiiiiiiiiiiiiiiiiiiiiiiiiiiiiiiiiiiiiiiiiiiiiiiiii",
"iiiiiiiiiiiiiiiiiiiiiiiiiiiiiiiiiiiiiiiiiiiiiiiiiiiiiiiiiiiiiiii",
"iiiiiiiiiiiiiiiiiiiiiiiiiiiiiiiiiiiiiiiiiiiiiiiiiiiiiiiiiiiiiiii",
"iiiiiiiiiiiiiiiiiiiiiiiiiiiiiiiiiiiiiiiiiiiiiiiiiiiiiiiiiiiiiiii",
"iiiiiiiiiiiiiiiiiiiiiiiiiiiiiiiiiiiiiiiiiiiiiiiiiiiiiiiiiiiiiiii",
"iiiiiiiiiiiiiiiiiiiiiiiiiiiiiiiiiiiiiiiiiiiiiiiiiiiiiiiiiiiiiiii",
"iiiiiiiiiiiiiiiiiiiiiiiiiiiiiiiiiiiiiiiiiiiiiiiiiiiiiiiiiiiiiiii",
"iiiiiiiiiiiiiiiiiiiiiiiiiiiiiiiiiiiiiiiiiiiiiiiiiiiiiiiiiiiiiiii",
"iiiiiiiiiiiiiiiiiiiiiiiiiiiiiiiiiiiiiiiiiiiiiiiiiiiiiiiiiiiiiiii",
"iiiiiiiiiiiiiiiiiiiiiiiiiiiiiiiiiiiiiiiiiiiiiiiiiiiiiiiiiiiiiiii",
"iiiiiiiiiiiiiiiiiiiiiiiiiiiiiiiiiiiiiiiiiiiiiiiiiiiiiiiiiiiiiiii",
"iiiiiiiiiiiiiiiiiiiiiiiiiiiiiiiiiiiiiiiiiiiiiiiiiiiiiiiiiiiiiiii",
"iiiiiiiiiiiiiiiiiiiiiiiiiiiiiiiiiiiiiiiiiiiiiiiiiiiiiiiiiiiiiiii",
"iiiiiiiiiiiiiiiiiiiiiiiiiuuuuuuuuuuiiiiiiiiiiiiiiiiiiiiiiiiiiiii",
"iiiiiiiiiiiiiiiiiiiiiiiiuuuuyy      iiiiiiiiiiiiiiiiiiiiiiiiiiii",
"iiiiiiiiiiiiiiiiiii....uuuuyy ------ iiiiiiiiiiiiiiiiiiiiiiiiiii",
"iiiiiiiiiiiiiiiiii..###uuuyy -,00000, iiiiiiiiiiiiiiiiiiiiiiiiii",
"iiiiiiiiiiiiiiiii..*iiuuuyy -,0000000,iiiiiiiiiiiiiiiiiiiiiiiiii",
"iiiiiiiiiiiiiiiii.**iuuuyy --000000000iiiiiiiiiiiiiiiiiiiiiiiiii",
"iiiiiiiiiiiiiiiii.*iiuuuy -000000000w0iiiiiiiiiiiiiiiiiiiiiiiiii",
"iiiiiiiiiiiiiiiii.*iiuuy --000000000t0iiiiiiiiiiiiiiiiiiiiiiiiii",
"iiiiiiiiiiiiiiiiuuuuuuuy -,00000000tt0iiiiiiiiiiiiiiiiiiiiiiiiii",
"iiiiiiiiiiiiiiiuuuuuuuyy -,00000000t00iiiiiiiiiiiiiiiiiiiiiiiiii",
"iiiiiiiiiiiiiiruuuuu yryy,,00000000000iiiiiiiiiiiiiiiiiiiiiiiiii",
"iiiiiiiiiiiiiiruuuuu uuyy,,0000000w00iiiiiiiiiiiiiiiiiiiiiiiiiii",
"iiiiiiiiiiiiiiru4uuu uuuyy,,,0000wt0iiiiiiiiiiiiiiiiiiiiiiiiiiii",
"iiiiiiiiiiiiiiru24uu uuuuuyy,,00wt0iiiiiiiiiiiiiiiiiiiiiiiiiiiii",
"iiiiiiiiiiiiiiru224u uuuuuuuyyy,00iiiiiiiiiiiiiiiiiiiiiiiiiiiiii",
"iiiiiiiiiiiiiiruuuuu uuuuuuuuyyyyyiiiiiiiiiiiiiiiiiiiiiiiiiiiiii",
"iiiiiiiiiiiiiiruuuuu uuu5ruuuuuuuiiiiiiiiiiiiiiiiiiiiiiiiiiiiiii",
"iiiiiiiiiiiiiiiyuuuu uuu5ruuu333uiiiiiiiiiiiiiiiiiiiiiiiiiiiiiii",
"iiiiiiiiiiiiiiiyuuuu uuu5ruuuuuuuiiiiiiiiiiiiiiiiiiiiiiiiiiiiiii",
"iiiiiiiiiiiiiiiyuooo uuu5ruuuuuuuiiiiiiiiiiiiiiiiiiiiiiiiiiiiiii",
"iiiiiiiiiiiiiiiyu106 uuu5ruuuuuu>iiiiiiiiiiiiiiiiiiiiiiiiiiiiiii",
"iiiiiiiiiiiiiiiyuuuu uuu5ruuuuu=qiiiiiiiiiiiiiiiiiiiiiiiiiiiiiii",
"iiiiiiiiiiiiiiiyuuuu uu55ruuuuu=qiiiiiiiiiiiiiiiiiiiiiiiiiiiiiii",
"iiiiiiiiiiiiiiiiiru  uu5rruuuuu=qiiiiiiiiiiiiiiiiiiiiiiiiiiiiiii",
"iiiiiiiiiiiiiiiiiir uuu>ruuuuyy=qiiiiiiiiiiiiiiiiiiiiiiiiiiiiiii",
"iiiiiiiiiiiiiiiiiii uuu>yuuyyyy=qiiiiiiiiiiiiiiiiiiiiiiiiiiiiiii",
"iiiiiiiiiiiiiiiiiiiiuuq>uuyyyyy$&iiiiiiiiiiiiiiiiiiiiiiiiiiiiiii",
"iiiiiiiiiiiiiiiiiiii:u5ryyyyyyy&$iiiiiiiiiiiiiiiiiiiiiiiiiiiiiii",
"iiiiiiiiiiiiiiiiiiii$:5yyyyyyyy$iiiiiiiiiiiiiiiiiiiiiiiiiiiiiiii",
"iiiiiiiiiiiiiiiiiiii+$qqq987;;;<iiiiiiiiiiiiiiiiiiiiiiiiiiiiiiii",
"iiiiiiiiiiiiiiiiiiiiyuuuuuuuuuuiiiiiiiiiiiiiiiiiiiiiiiiiiiiiiiii",
"iiiiiiiiiiiiiiiiiiiiiyuuuueuuriiiiiiiiiiiiiiiiiiiiiiiiiiiiiiiiii",
"iiiiiiiiiiiiiiiiiiiiiiyuuueuuriiiiiiiiiiiiiiiiiiiiiiiiiiiiiiiiii",
"iiiiiiiiiiiiiiiiiiiiiiyuuueuuriiiiiiiiiiiiiiiiiiiiiiiiiiiiiiiiii",
"iiiiiiiiiiiiiiiiiiiiiiyuuueeuriiiiiiiiiiiiiiiiiiiiiiiiiiiiiiiiii",
"iiiiiiiiiiiiiiiiiiiiiiyuuuueuriiiiiiiiiiiiiiiiiiiiiiiiiiiiiiiiii",
"iiiiiiiiiiiiiiiiiiiiiiyuuuueuriiiiiiiiiiiiiiiiiiiiiiiiiiiiiiiiii",
"iiiiiiiiiiiiiiiiiiiiiiyuuueeuriiiiiiiiiiiiiiiiiiiiiiiiiiiiiiiiii",
"iiiiiiiiiiiiiiiiiiiiiiyuuueyyriiiiiiiiiiiiiiiiiiiiiiiiiiiiiiiiii",
"iiiiiiiiiiiiiiiiiiiiiiyuuuerrriiiiiiiiiiiiiiiiiiiiiiiiiiiiiiiiii",
"iiiiiiiiiiiiiiiiiiiiii@@yyeX@@@iiiiiiiiiiiiiiiiiiiiiiiiiiiiiiiii",
"iiiiiiiiiiiiiiiiiiiiii%%@@@X%%%iiiiiiiiiiiiiiiiiiiiiiiiiiiiiiiii",
"iiiiiiiiiiiiiiiiiiiiiiO%%XXiiiiiiiiiiiiiiiiiiiiiiiiiiiiiiiiiiiii",
"iiiiiiiiiiiiiiiiiiiiiiiiiiiiiiiiiiiiiiiiiiiiiiiiiiiiiiiiiiiiiiii"
};
