/* XPM */
static char *result[] = {
/* columns rows colors chars-per-pixel */
"64 64 32 1 ",
"  c black",
". c #2C303C",
"X c #30343F",
"o c #333742",
"O c #363945",
"+ c #393D48",
"@ c #444752",
"# c #5F626B",
"$ c #7A7C84",
"% c #8F9198",
"& c #94969C",
"* c #A9ABB0",
"= c #AEAFB4",
"- c #AEB0B4",
"; c #AFB1B5",
": c #B1B2B7",
"> c #B3B5B9",
", c #B4B5BA",
"< c #B5B7BB",
"1 c #B7B8BC",
"2 c #B9BBBF",
"3 c #BCBDC1",
"4 c #BFC0C4",
"5 c #C2C3C6",
"6 c #C5C6C9",
"7 c #C8C9CD",
"8 c #C9CACD",
"9 c #CCCDD0",
"0 c #CFD0D3",
"q c #E4E5E6",
"w c #FEFEFE",
"e c white",
/* pixels */
"                                                                ",
"                                                                ",
"                                                                ",
"                                                                ",
"                                                                ",
"                                                                ",
"                                                                ",
"                                                                ",
"                                                                ",
"                                                                ",
"                                                                ",
"                                                                ",
"                                                                ",
"                                                                ",
"                                                                ",
"                                                                ",
"                                                                ",
"                                                                ",
"                                                                ",
"                                                                ",
"                       @eeeeeee8   %wwwwww38eeeeeee             ",
"                      @8eeeeee8    %eeeee4 8eeeeeee             ",
"                     @8eeeeee8     %eeee5  8eeeeeee             ",
"                    @8eeeeee8      %eee6.  8eeeeeee             ",
"                   @8eeeeee8       %ee7X   8eeeeeee             ",
"                  @8eeeeee8        %e9o    8eeeeeee             ",
"                 @8eeeeee8         %0O     8eeeeeee             ",
"                @8eeeeee8          %+      8eeeeeee             ",
"                8eeeeee8                  #eeeeeee$             ",
"               8eeeeeeq                  #eeeeeee$              ",
"              8eeeeeeq                  #eeeeeee$               ",
"             8eeeeeeq                  #eeeeeee$                ",
"            8eeeeeeq                  #eeeeeee$                 ",
"           8eeeeeeq                  #eeeeeee$                  ",
"          8eeeeeeq                  #eeeeeee$                   ",
"         8eeeeeee###############@  #eeeeeee&                    ",
"         eeeeeeeeeeeeeeeeeeeeeee#  &eeeeeee#      2             ",
"         eeeeeeeeeeeeeeeeeeeeeee#  &eeeeeee#     1e             ",
"         eeeeeeeeeeeeeeeeeeeeeee#  &eeeeeee#    <ee             ",
"         eeeeeeeeeeeeeeeeeeeeeee#  &eeeeeee#   >eee             ",
"         eeeeeeeeeeeeeeeeeeeeeee#  &eeeeeee#  :eeee             ",
"         eeeeeeeeeeeeeeeeeeeeeee#  &eeeeeee# ;eeeee             ",
"         @@@@@@@@@@@@@@@&eeeeeee#  &eeeeeee#=eeeeee             ",
"                        &eeeeeee#  #-------,*******             ",
"                        &eeeeeee#                               ",
"                        &eeeeeee#                               ",
"                        &eeeeeee#                               ",
"                        &eeeeeee#                               ",
"                        &eeeeeee#                               ",
"                        &eeeeeee#                               ",
"                                                                ",
"                                                                ",
"                                                                ",
"                                                                ",
"                                                                ",
"                                                                ",
"                                                                ",
"                                                                ",
"                                                                ",
"                                                                ",
"                                                                ",
"                                                                ",
"                                                                ",
"                                                                "
};
