/* XPM */
static char *result[] = {
/* columns rows colors chars-per-pixel */
"64 64 16 1 ",
"  c black",
". c #4C4C4C",
"X c #626262",
"o c #797979",
"O c #F95D2D",
"+ c #FC8939",
"@ c #FCAC39",
"# c #F9ED2D",
"$ c #0202FB",
"% c #0303FC",
"& c #0101FE",
"* c gray56",
"= c #AAAAAA",
"- c gray80",
"; c #E2E2E2",
": c None",
/* pixels */
"::::::::::::::::::::::::::::::--;;::::::::::::::::::::::::::::::",
"::::::::::::::::::::::::::::::--;;::::::::::::::::::::::::::::::",
"::::::::::::::::::::::::::::::--;;::::::::::::::::::::::::::::::",
"::::::::::::::::::::::::::::----;;;;::::::::::::::::::::::::::::",
"::::::::::::::::::::::::::::----;;;;::::::::::::::::::::::::::::",
"::::::::::::::::::::::::::::----;;;;::::::::::::::::::::::::::::",
"::::::::::::::::::::::::::::----;;;;::::::::::::::::::::::::::::",
"::::::::::::::::::::::::::::----;;;;::::::::::::::::::::::::::::",
"::::::::::::::::::::::::::********====::::::::::::::::::::::::::",
"::::::::::::::::::::::::::********====::::::::::::::::::::::::::",
"::::::::::::::::::::::::oo******========::::::::::::::::::::::::",
"::::::::::::::::::::::::oo******========::::::::::::::::::::::::",
"::::::::::::::::::::::::oo******========::::::::::::::::::::::::",
":::::::::::::::::::::ooooo****=============:::::::::::::::::::::",
":::::::::::::::::::::ooooo****=============:::::::::::::::::::::",
":::::::::::::::::::ooooooo;;;;;;;;;;;;=======:::::::::::::::::::",
":::::::::::::::::::ooooooo;;;;;;;;;;;;=======:::::::::::::::::::",
":::::::::::::::::::ooooooo;;;;;;;;;;;;=======:::::::::::::::::::",
":::::::::::::::::XXooooo;;            ;;=====**:::::::::::::::::",
":::::::::::::::::XXooooo;;            ;;=====**:::::::::::::::::",
":::::::::::::::::XXoo;;;                ;;;==**:::::::::::::::::",
":::::::::::::::::XXoo;;;                ;;;==**:::::::::::::::::",
":::::::::::::::::XXoo;;;                ;;;==**:::::::::::::::::",
":::::::::::::::::XXoo;;;                ;;;==**:::::::::::::::::",
":::::::::::::::::XXoo;;;                ;;;==**:::::::::::::::::",
":::::::::::::::::XXoo;;;                ;;;==**:::::::::::::::::",
":::::::::::::::::XXoo;;;                ;;;==**:::::::::::::::::",
":::::::::::::::::XXoo;;;                ;;;==**:::::::::::::::::",
":::::::::::::::::XXXXooo;;            ;;===****:::::::::::::::::",
":::::::::::::::::XXXXooo;;            ;;===****:::::::::::::::::",
":::::::::::::::::XXXXooo;;            ;;===****:::::::::::::::::",
":::::::::::::::::..XXXXXoo;;;;;;;;;;;;==*******:::::::::::::::::",
":::::::::::::::::..XXXXXoo;;;;;;;;;;;;==*******:::::::::::::::::",
":::::::::::::::::::..XXXXXoo%o%o*%%%*********:::::::::::::::::::",
":::::::::::::::::::..XXXXXoo%o%o***%*********:::::::::::::::::::",
":::::::::::::::::::..XXXXXoo%o%o***%*********:::::::::::::::::::",
":::::::::::::::::::::...XXXX&$%oo%%%*******:::::::::::::::::::::",
":::::::::::::::::::::...XXXXXX%oo%oo*******:::::::::::::::::::::",
"::::::::::::::::::::::::....XX$XX$XXoo**::::::::::::::::::::::::",
"::::::::::::::::::::::::....XX$XX$$$oo**::::::::::::::::::::::::",
"::::::::::::::::::::::::....XXXXXXXXoo**::::::::::::::::::::::::",
":::::::::::::::::::::XXXXXoooooo********===:::::::::::::::::::::",
":::::::::::::::::::::XXXXXoooooo********===:::::::::::::::::::::",
":::::::::::::::::::::XXXXXoooooo********===:::::::::::::::::::::",
":::::::::::::::::::XXXXXoooooo******=========:::::::::::::::::::",
":::::::::::::::::::XXXXXoooooo******=========:::::::::::::::::::",
"::::::::::::::::::::::::@@@@++OOOO++++##::::::::::::::::::::::::",
"::::::::::::::::::::::::@@@@++OOOO++++##::::::::::::::::::::::::",
"::::::::::::::::::::::::@@@@++OOOO++++##::::::::::::::::::::::::",
"::::::::::::::::::::::::##@@++++OO++@@::::::::::::::::::::::::::",
"::::::::::::::::::::::::##@@++++OO++@@::::::::::::::::::::::::::",
"::::::::::::::::::::::::::##@@++++++##::::::::::::::::::::::::::",
"::::::::::::::::::::::::::##@@++++++##::::::::::::::::::::::::::",
"::::::::::::::::::::::::::##@@++++++##::::::::::::::::::::::::::",
"::::::::::::::::::::::::::::@@++++##::::::::::::::::::::::::::::",
"::::::::::::::::::::::::::::@@++++##::::::::::::::::::::::::::::",
"::::::::::::::::::::::::::::####@@::::::::::::::::::::::::::::::",
"::::::::::::::::::::::::::::####@@::::::::::::::::::::::::::::::",
"::::::::::::::::::::::::::::####@@::::::::::::::::::::::::::::::",
"::::::::::::::::::::::::::::::::##::::::::::::::::::::::::::::::",
"::::::::::::::::::::::::::::::::##::::::::::::::::::::::::::::::",
"::::::::::::::::::::::::::::::::::::::::::::::::::::::::::::::::",
"::::::::::::::::::::::::::::::::::::::::::::::::::::::::::::::::",
"::::::::::::::::::::::::::::::::::::::::::::::::::::::::::::::::"
};
