/* XPM */
static char *c61ff5ee2772463dcf6761f3575055c0uesSc8F7UZYDO5Mh[] = {
/* columns rows colors chars-per-pixel */
"30 30 164 2 ",
"   c #381006",
".  c #3D1B16",
"X  c #3E1D18",
"o  c #3F2421",
"O  c #411C15",
"+  c #4D1D16",
"@  c #40211E",
"#  c #582017",
"$  c #57231D",
"%  c #5A251E",
"&  c #66261D",
"*  c #432421",
"=  c #482723",
"-  c #4D2926",
";  c #5E2C26",
":  c #552E2A",
">  c #5D2E29",
",  c #5E332E",
"<  c #463134",
"1  c #4A363A",
"2  c #4B383C",
"3  c #662B23",
"4  c #6C2E24",
"5  c #6A2F2A",
"6  c #6D3127",
"7  c #63342F",
"8  c #6D332B",
"9  c #633631",
"0  c #653934",
"q  c #6D3B36",
"w  c #703C37",
"e  c #723E39",
"r  c #69413C",
"t  c #75423A",
"y  c #4F3E45",
"u  c #503F47",
"i  c #4D444F",
"p  c #514047",
"a  c #564248",
"s  c #5D4649",
"d  c #4A4653",
"f  c #4D4A59",
"g  c #534754",
"h  c #63484B",
"j  c #6A4B4B",
"k  c #714F4B",
"l  c #7D4C44",
"z  c #77514C",
"x  c #79524D",
"c  c #655257",
"v  c #6F575C",
"b  c #62535B",
"n  c #7A5452",
"m  c #7F5854",
"M  c #7A5D5C",
"N  c #745653",
"B  c #454F64",
"V  c #465065",
"C  c #495267",
"Z  c #46536C",
"A  c #4A556A",
"S  c #4F586C",
"D  c #5C5767",
"F  c #5D5B6D",
"G  c #425775",
"H  c #4D5A71",
"J  c #515D74",
"K  c #5A5C71",
"L  c #635466",
"P  c #6A5A63",
"I  c #67586A",
"U  c #6B5F68",
"Y  c #4F617B",
"T  c #57647B",
"R  c #586378",
"E  c #78676B",
"W  c #626677",
"Q  c #6A6276",
"!  c #6E6679",
"~  c #7D6B71",
"^  c #726C7E",
"/  c #7B6B7B",
"(  c #954639",
")  c #974A3E",
"_  c #864A43",
"`  c #974F47",
"'  c #95524B",
"]  c #99544D",
"[  c #805652",
"{  c #855954",
"}  c #895A54",
"|  c #816D6A",
" . c #93746D",
".. c #826F75",
"X. c #816D7A",
"o. c #857370",
"O. c #81747E",
"+. c #917771",
"@. c #967B74",
"#. c #95817B",
"$. c #546482",
"%. c #586988",
"&. c #52698B",
"*. c #626E85",
"=. c #6A7486",
"-. c #62708C",
";. c #7A7181",
":. c #71778D",
">. c #6A7B91",
",. c #677799",
"<. c #67789A",
"1. c #6C7D9D",
"2. c #667FA6",
"3. c #6E7FA3",
"4. c #867782",
"5. c #837884",
"6. c #887881",
"7. c #7A8497",
"8. c #7B879F",
"9. c #6B81A4",
"0. c #6D85AB",
"q. c #7383A4",
"w. c #7286A9",
"e. c #7489AE",
"r. c #7D8BA0",
"t. c #768DB3",
"y. c #7A8EB3",
"u. c #7890B6",
"i. c #8B808E",
"p. c #998785",
"a. c #9C918F",
"s. c #858395",
"d. c #81879C",
"f. c #82889D",
"g. c #8A8B96",
"h. c #9F9290",
"j. c #979F9B",
"k. c #A89D9B",
"l. c #9CA19E",
"z. c #848FA4",
"x. c #818EAA",
"c. c #8690A6",
"v. c #8391AC",
"b. c #8995AD",
"n. c #8D99AF",
"m. c #8594B2",
"M. c #8896B1",
"N. c #8C9AB5",
"B. c #8F9DB8",
"V. c #849BBD",
"C. c #909DB7",
"Z. c #909DB8",
"A. c #90A1B6",
"S. c #93A0BB",
"D. c #9AA5BA",
"F. c #9DA8BE",
"G. c #9DA9C2",
"H. c #A2ACC1",
"J. c #ACB6CA",
"K. c #AFB9CE",
"L. c #A2B3CB",
"P. c #A2B6D3",
"I. c #BBCCCE",
"U. c #C1CFD0",
/* pixels */
"y s j x z x z z z x k s p p p p s k x x x k z z x k h u p p ",
"s h k x z z z z z z z j s a p a h k x k x x z z z k j h a p ",
"j k z x z z z z z z x m n s a j k x x x z z z z x x n n s p ",
"x x z z z z z z z z x { s.v.c.c.c.s.k x z z z z z x } { s u ",
"x x x z z z z z z z x { f.M.b.M.M.f.x k k x x k z x } { h u ",
"z z x x z z M ~ ~ ~ o.v :.M.v.v.M.:.c ....~ ~ M z x { { h u ",
"z x x x z z E N.M.M.A.H c.H.F.F.H.c.H Z.b.M.N.E z x } { s u ",
"c / / O.5.U D B.v.v.N.S 8.S.B.B.Z.r.H N.x.x.N.D P 5.6.5.;.f ",
"S M.M.M.Z.*.*.K.H.G.J.R %.<.<.<.<.%.T J.H.H.K.*.*.Z.M.b.M.A ",
"S v.v.v.N.*.T S.b.M.B.J -.q.3.3.w.-.J C.b.b.Z.T *.N.v.v.v.A ",
"S H.H.H.K.7.Z 9.<.<.3.H 1.y.e.e.e.<.H 1.<.<.3.G 7.K.H.H.H.S ",
"A x.x.x.m.-.Y y.w.w.y.d < 2 y 2 y < d u.w.w.y.T -.m.x.z.y.A ",
"C <.1.1.0.K o 1 1 1 2 * . . . . . . * 1 1 1 2 o K w.<.1.<.A ",
"C 1.1.1.w.F   X X X X X @ * * @ @ o @ X X X X   F e.1.1.1.C ",
"C H H H Y d . o o o o : = : : : : = - o * o * O d T J H H B ",
"S D.D.D.L.5.+ , = - , , = : , , : = , , - = , + ;.L.D.D.D.S ",
"C q.8.3.e.Q # ; = , w q 7 0 q w 0 7 q t : = , % Q e.q.8.1.C ",
"A 1.q.1.0.^ t k r 7 q q 7 0 q w 0 7 w w 0 9 w 8 ! 0.1.9.9.C ",
"A q.q.q.9.8.j.I.o.% q w 7 0 w q 8 , q w 9 , w 6 ^ t.q.q.w.A ",
"C $.$.$.$.W #.k.N > w q , 0 w w 0 7 q w 9 0 8 4 L &.$.$.$.B ",
"C =.=.=.>.P & 3 , 9 q q 7 0 q q 0 , w w 9 , [ l P >.=.=.=.C ",
"S G.G.H.P.i.3 w 9 7 q w , 8 w w 0 , w w 9 $ a.+.X.L.G.G.F.S ",
"A ,.<.<.2.Q 8 w 7 0 w q , 0 q q 0 7 q w 9 $ p. .D 2.,.,.<.Z ",
"S 1.1.3.0.! 6 w 9 7 q w 7 0 w q 0 7 q w 9 % p. .P w.9.9.1.Z ",
"A w.w.q.u.^ 6 w 9 9 q q 7 0 w q 0 , q w 9 $ a.@.I t.q.e.q.A ",
"B C Z Z G g 4 4 , 9 w w 7 0 q w q 7 q w 7 , x l g G Z A A V ",
"S b.n.b.n.g.E a.M ; q q 7 9 w q 0 , q w 9 9 8 & O.A.b.b.b.C ",
"C x.v.v.v.z.l.U.E ; w w 7 0 q q 0 7 q w 0 9 w 4 ;.V.v.v.v.C ",
"A 1.1.1.3.! t x 0 7 q q 7 0 q q q 7 q w 9 9 w 8 ! 0.1.<.1.C ",
"C 1.1.1.9./ ( ` q t ] ] 0 _ ' ' _ 9 ' ] t q ] ) / 9.1.1.1.C "
};
