/* XPM */
static char *a17b41411ea44545b5289d5efbb2ef42sqx5p8a9vAtXXvDN[] = {
/* columns rows colors chars-per-pixel */
"30 30 206 2 ",
"   c black",
".  c #101217",
"X  c #16191F",
"o  c #3A150D",
"O  c #3C170F",
"+  c #171A20",
"@  c #171A21",
"#  c #191D24",
"$  c #1C2029",
"%  c #1D212A",
"&  c #232934",
"*  c #461E16",
"=  c #412320",
"-  c #422421",
";  c #422422",
":  c #452926",
">  c #442927",
",  c #482A27",
"<  c #4D2D29",
"1  c #4E2D2A",
"2  c #4F2E2A",
"3  c #4E2E2B",
"4  c #2E3B4C",
"5  c #313947",
"6  c #363F51",
"7  c #4F3F47",
"8  c #503F47",
"9  c #3C4558",
"0  c #42424B",
"q  c #504047",
"w  c #514047",
"e  c #534147",
"r  c #554248",
"t  c #574348",
"y  c #584348",
"u  c #5B4448",
"i  c #5B4548",
"p  c #5D4648",
"a  c #5F474B",
"s  c #424854",
"d  c #40495C",
"f  c #404B5F",
"g  c #4D4A59",
"h  c #634849",
"j  c #644849",
"k  c #62484C",
"l  c #63494C",
"z  c #694A4A",
"x  c #6A4C4C",
"c  c #704E4B",
"v  c #724F4B",
"b  c #734F4C",
"n  c #75504C",
"m  c #76504C",
"M  c #76514C",
"N  c #77514C",
"B  c #78514C",
"V  c #78524C",
"C  c #78524D",
"Z  c #7A524D",
"A  c #7A534D",
"S  c #655257",
"D  c #62535B",
"F  c #6F575C",
"G  c #7A5452",
"H  c #7B5D5D",
"J  c #454F63",
"K  c #444F64",
"L  c #454F64",
"P  c #455065",
"I  c #465064",
"U  c #465066",
"Y  c #475166",
"T  c #485167",
"R  c #485267",
"E  c #495267",
"W  c #465269",
"Q  c #475369",
"!  c #44516A",
"~  c #47536A",
"^  c #47546A",
"/  c #46536C",
"(  c #45546E",
")  c #495368",
"_  c #485369",
"`  c #495469",
"'  c #4A5569",
"]  c #4B5569",
"[  c #48546A",
"{  c #49546A",
"}  c #49556A",
"|  c #4A556A",
" . c #4B566B",
".. c #4C566A",
"X. c #4A566C",
"o. c #4B576C",
"O. c #49556E",
"+. c #4C576C",
"@. c #4D586C",
"#. c #4E586C",
"$. c #5A5767",
"%. c #5C5B6E",
"&. c #5E5C6C",
"*. c #4D5A70",
"=. c #4E5A70",
"-. c #4E5A71",
";. c #4D5B74",
":. c #515D74",
">. c #6B5E68",
",. c #6B5F68",
"<. c #57637B",
"1. c #586378",
"2. c #75646C",
"3. c #606774",
"4. c #6C6573",
"5. c #626979",
"6. c #7D6A71",
"7. c #7D6B71",
"8. c #756F7E",
"9. c #805652",
"0. c #835854",
"q. c #845955",
"w. c #875A54",
"e. c #895A54",
"r. c #816E75",
"t. c #836F75",
"y. c #80737E",
"u. c #566582",
"i. c #586988",
"p. c #626D81",
"a. c #626E87",
"s. c #626F87",
"d. c #6A7486",
"f. c #647089",
"g. c #61708E",
"h. c #64728F",
"j. c #70788D",
"k. c #71798E",
"l. c #677899",
"z. c #67789A",
"x. c #68799B",
"c. c #6D7C9B",
"v. c #6E7C9A",
"b. c #6B7B9C",
"n. c #6A7A9D",
"m. c #6C7C9D",
"M. c #6E7E9E",
"N. c #6E7F9F",
"B. c #6F7F9F",
"V. c #6D7DA0",
"C. c #6E7FA3",
"Z. c #867782",
"A. c #847883",
"S. c #857883",
"D. c #887881",
"F. c #7A8498",
"G. c #7B879F",
"H. c #6F81A3",
"J. c #7080A0",
"K. c #7282A3",
"L. c #7384A5",
"P. c #7484A5",
"I. c #7586A7",
"U. c #7386A8",
"Y. c #7087AB",
"T. c #7686A8",
"R. c #838294",
"E. c #868497",
"W. c #81879D",
"Q. c #82889E",
"!. c #848FA7",
"~. c #808EAB",
"^. c #858FA8",
"/. c #8691A6",
"(. c #8690A8",
"). c #8790A8",
"_. c #8391AC",
"`. c #8290AE",
"'. c #8491AC",
"]. c #8D96A9",
"[. c #8895AF",
"{. c #8796B3",
"}. c #8895B0",
"|. c #8996B1",
" X c #8896B2",
".X c #8B98B3",
"XX c #8B99B5",
"oX c #8C9AB4",
"OX c #8F9CB5",
"+X c #8E9DB8",
"@X c #8F9DB8",
"#X c #899EBF",
"$X c #909DB7",
"%X c #909DB8",
"&X c #92A0BB",
"*X c #96A3B8",
"=X c #94A0BA",
"-X c #9AA5BA",
";X c #9DA8BE",
":X c #9DA9C2",
">X c #A1ACC0",
",X c #A3ADC2",
"<X c #A2ADC3",
"1X c #ACB6CB",
"2X c #AEB9CC",
"3X c #AFBACE",
/* pixels */
"7 u c V N N N N N V b p 7 7 q 7 p c V N N N N N V c p 8 8 q ",
"u h c V N N N N N V N x a r q y j c V N N N N N V b z k r 8 ",
"c c N V N N N N N N N 9.G p u z b N N N N N N N V V 9.G a 8 ",
"V V N N N N N N N N V e.E.^.^.(./.R.N N N N N N N V e.q.l 7 ",
"V m V m V m N N B m A e.!.|.|.[.|.Q.B N N N N N N V w.9.l 8 ",
"m V m V m V H 6.6.r.t.F j.'.'.(.|.j.S r.7.6.6.H V V e.0.k 7 ",
"V m V m V N 2.XX).[.$X=./.,X:X;X,X/.=.$X{.[.OX2.N G e.0.k 7 ",
"D y.y.y.Z.>.$.+X_.(.oX=.I.%XOXOX*XI.@..X_.`.%X$.>.S.Z.Z.8.g ",
"O.[.[.[.+Xs.p.3X>X>X1X1.i.n.z.z.c.i.1.1X>X>X3Xp.s.+X[.{.[. .",
"..'.'.[.XXs.<.&X[. XOX:.g.L.M.J.K.g.:.OX{.|.%X<.f.XX(.(._. .",
"#.,X,X,X3XF.( H.z.z.M.O.g.K.J.M.I.h.O.B.z.x.C./ F.3X,X,X>X+.",
"^ ^.T.^.{.f.;.T.H.J.L.& # % $ $ % @ & I.B.B.I.;.s.{.`.'.T. .",
"^ n.b.b.H.9 . @ X X @                 @ X X @ . 9 H.b.b.b.^ ",
"_ M.M.M.J.d                                     9 K.M.M.J.^ ",
"I =.=.=.=.5                                     5 =.=.=.@.I ",
" .-X-X-X-X3.                                    1.-X-X-X-XO.",
"_ K.K.M.F.K                                     I J.J.J.J.I ",
"_ M.J.M.V.K                                     I J.M.J.H.^ ",
" .L.L.L.L._                                     I L.L.L.K.^ ",
"I u.u.u.u.6                                     9 u.u.u.u.I ",
"T d.d.d.d.s                                     s d.d.d.d.T ",
"@.:X:X:X:X5.                                    5.:X:X:X:XO.",
"_ z.l.l.l.K                                     9 z.z.z.l.I ",
" .M.M.M.M.L                                     I M.J.M.J. .",
" .I.I.I.I.T                                     _ I.I.I.U.^ ",
"J / / / / 4                                     4 / / / / K ",
" .].].].*X0                                     0 *X].].]. .",
" .`.`.~.#X4.* 3 3 3 3 , : > > > , 3 2 3 3 3 3 * 4.#X`.~.~. .",
"/ c.v.b.Y.%.o - = = = = = = = = = = = = = = = o %.U.n.M.n. .",
"T c.v.v.U.&.O - - = - - - - ; ; - - - - - - - O &.U.c.M.v.I "
};
