/* XPM */
static char *result[] = {
/* columns rows colors chars-per-pixel */
"64 64 10 1 ",
"  c black",
". c #4C4C4C",
"X c #626262",
"o c #797979",
"O c #FF3600",
"+ c gray56",
"@ c #AAAAAA",
"# c gray80",
"$ c #E2E2E2",
"% c None",
/* pixels */
"%%%%%%%%%%%%%%%%%%%%%%%%%%%%%%##$$%%%%%%%%%%%%%%%%%%%%%%%%%%%%%%",
"%%%%%%%%%%%%%%%%%%%%%%%%%%%%%%##$$%%%%%%%%%%%%%%%%%%%%%%%%%%%%%%",
"%%%%%%%%%%%%%%%%%%%%%%%%%%%%%%##$$%%%%%%%%%%%%%%%%%%%%%%%%%%%%%%",
"%%%%%%%%%%%%%%%%%%%%%%%%%%%%####$$$$%%%%%%%%%%%%%%%%%%%%%%%%%%%%",
"%%%%%%%%%%%%%%%%%%%%%%%%%%%%####$$$$%%%%%%%%%%%%%%%%%%%%%%%%%%%%",
"%%%%%%%%%%%%%%%%%%%%%%%%%%%%####$$$$%%%%%%%%%%%%%%%%%%%%%%%%%%%%",
"%%%%%%%%%%%%%%%%%%%%%%%%%%%%####$$$$%%%%%%%%%%%%%%%%%%%%%%%%%%%%",
"%%%%%%%%%%%%%%%%%%%%%%%%%%%%####$$$$%%%%%%%%%%%%%%%%%%%%%%%%%%%%",
"%%%%%%%%%%%%%%%%%%%%%%%%%%++++++++@@@@%%%%%%%%%%%%%%%%%%%%%%%%%%",
"%%%%%%%%%%%%%%%%%%%%%%%%%%++++++++@@@@%%%%%%%%%%%%%%%%%%%%%%%%%%",
"%%%%%%%%%%%%%%%%%%%%%%%%oo++++++@@@@@@@@%%%%%%%%%%%%%%%%%%%%%%%%",
"%%%%%%%%%%%%%%%%%%%%%%%%oo++++++@@@@@@@@%%%%%%%%%%%%%%%%%%%%%%%%",
"%%%%%%%%%%%%%%%%%%%%%%%%oo++++++@@@@@@@@%%%%%%%%%%%%%%%%%%%%%%%%",
"%%%%%%%%%%%%%%%%%%%%%ooooo++++@@@@@@@@@@@@@%%%%%%%%%%%%%%%%%%%%%",
"%%%%%%%%%%%%%%%%%%%%%ooooo++++@@@@@@@@@@@@@%%%%%%%%%%%%%%%%%%%%%",
"%%%%%%%%%%%%%%%%%%%ooooooo$$$$$$$$$$$$@@@@@@@%%%%%%%%%%%%%%%%%%%",
"%%%%%%%%%%%%%%%%%%%ooooooo$$$$$$$$$$$$@@@@@@@%%%%%%%%%%%%%%%%%%%",
"%%%%%%%%%%%%%%%%%%%ooooooo$$$$$$$$$$$$@@@@@@@%%%%%%%%%%%%%%%%%%%",
"%%%%%%%%%%%%%%%%%XXooooo$$            $$@@@@@++%%%%%%%%%%%%%%%%%",
"%%%%%%%%%%%%%%%%%XXooooo$$            $$@@@@@++%%%%%%%%%%%%%%%%%",
"%%%%%%%%%%%%%%%%%XXoo$$$                $$$@@++%%%%%%%%%%%%%%%%%",
"%%%%%%%%%%%%%%%%%XXoo$$$                $$$@@++%%%%%%%%%%%%%%%%%",
"%%%%%%%%%%%%%%%%%XXoo$$$                $$$@@++%%%%%%%%%%%%%%%%%",
"%%%%%%%%%%%%%%%%%XXoo$$$                $$$@@++%%%%%%%%%%%%%%%%%",
"%%%%%%%%%%%%%%%%%XXoo$$$                $$$@@++%%%%%%%%%%%%%%%%%",
"%%%%%%%%%%%%%%%%%XXoo$$$                $$$@@++%%%%%%%%%%%%%%%%%",
"%%%%%%%%%%%%%%%%%XXoo$$$                $$$@@++%%%%%%%%%%%%%%%%%",
"%%%%%%%%%%%%%%%%%XXoo$$$                $$$@@++%%%%%%%%%%%%%%%%%",
"%%%%%%%%%%%%%%%%%XXXXooo$$            $$@@@++++%%%%%%%%%%%%%%%%%",
"%%%%%%%%%%%%%%%%%XXXXooo$$            $$@@@++++%%%%%%%%%%%%%%%%%",
"%%%%%%%%%%%%%%%%%XXXXooo$$            $$@@@++++%%%%%%%%%%%%%%%%%",
"%%%%%%%%%%%%%%%%%..XXXXXoo$$$$$$$$$$$$@@+++++++%%%%%%%%%%%%%%%%%",
"%%%%%%%%%%%%%%%%%..XXXXXoo$$$$$$$$$$$$@@+++++++%%%%%%%%%%%%%%%%%",
"%%%%%%%%%%%%%%%%%%%..XXXXXooOoOo+OOO+++++++++%%%%%%%%%%%%%%%%%%%",
"%%%%%%%%%%%%%%%%%%%..XXXXXooOoOo+++O+++++++++%%%%%%%%%%%%%%%%%%%",
"%%%%%%%%%%%%%%%%%%%..XXXXXooOoOo+++O+++++++++%%%%%%%%%%%%%%%%%%%",
"%%%%%%%%%%%%%%%%%%%%%...XXXXOOOooOOO+++++++%%%%%%%%%%%%%%%%%%%%%",
"%%%%%%%%%%%%%%%%%%%%%...XXXXXXOooOoo+++++++%%%%%%%%%%%%%%%%%%%%%",
"%%%%%%%%%%%%%%%%%%%%%%%%....XXOXXOXXoo++%%%%%%%%%%%%%%%%%%%%%%%%",
"%%%%%%%%%%%%%%%%%%%%%%%%....XXOXXOOOoo++%%%%%%%%%%%%%%%%%%%%%%%%",
"%%%%%%%%%%%%%%%%%%%%%%%%....XXXXXXXXoo++%%%%%%%%%%%%%%%%%%%%%%%%",
"%%%%%%%%%%%%%%%%%%%%%XXXXXoooooo++++++++@@@%%%%%%%%%%%%%%%%%%%%%",
"%%%%%%%%%%%%%%%%%%%%%XXXXXoooooo++++++++@@@%%%%%%%%%%%%%%%%%%%%%",
"%%%%%%%%%%%%%%%%%%%%%XXXXXoooooo++++++++@@@%%%%%%%%%%%%%%%%%%%%%",
"%%%%%%%%%%%%%%%%%%%XXXXXoooooo++++++@@@@@@@@@%%%%%%%%%%%%%%%%%%%",
"%%%%%%%%%%%%%%%%%%%XXXXXoooooo++++++@@@@@@@@@%%%%%%%%%%%%%%%%%%%",
"%%%%%%%%%%%%%%%%%%%%%%%%%%%%%%%%%%%%%%%%%%%%%%%%%%%%%%%%%%%%%%%%",
"%%%%%%%%%%%%%%%%%%%%%%%%%%%%%%%%%%%%%%%%%%%%%%%%%%%%%%%%%%%%%%%%",
"%%%%%%%%%%%%%%%%%%%%%%%%%%%%%%%%%%%%%%%%%%%%%%%%%%%%%%%%%%%%%%%%",
"%%%%%%%%%%%%%%%%%%%%%%%%%%%%%%%%%%%%%%%%%%%%%%%%%%%%%%%%%%%%%%%%",
"%%%%%%%%%%%%%%%%%%%%%%%%%%%%%%%%%%%%%%%%%%%%%%%%%%%%%%%%%%%%%%%%",
"%%%%%%%%%%%%%%%%%%%%%%%%%%%%%%%%%%%%%%%%%%%%%%%%%%%%%%%%%%%%%%%%",
"%%%%%%%%%%%%%%%%%%%%%%%%%%%%%%%%%%%%%%%%%%%%%%%%%%%%%%%%%%%%%%%%",
"%%%%%%%%%%%%%%%%%%%%%%%%%%%%%%%%%%%%%%%%%%%%%%%%%%%%%%%%%%%%%%%%",
"%%%%%%%%%%%%%%%%%%%%%%%%%%%%%%%%%%%%%%%%%%%%%%%%%%%%%%%%%%%%%%%%",
"%%%%%%%%%%%%%%%%%%%%%%%%%%%%%%%%%%%%%%%%%%%%%%%%%%%%%%%%%%%%%%%%",
"%%%%%%%%%%%%%%%%%%%%%%%%%%%%%%%%%%%%%%%%%%%%%%%%%%%%%%%%%%%%%%%%",
"%%%%%%%%%%%%%%%%%%%%%%%%%%%%%%%%%%%%%%%%%%%%%%%%%%%%%%%%%%%%%%%%",
"%%%%%%%%%%%%%%%%%%%%%%%%%%%%%%%%%%%%%%%%%%%%%%%%%%%%%%%%%%%%%%%%",
"%%%%%%%%%%%%%%%%%%%%%%%%%%%%%%%%%%%%%%%%%%%%%%%%%%%%%%%%%%%%%%%%",
"%%%%%%%%%%%%%%%%%%%%%%%%%%%%%%%%%%%%%%%%%%%%%%%%%%%%%%%%%%%%%%%%",
"%%%%%%%%%%%%%%%%%%%%%%%%%%%%%%%%%%%%%%%%%%%%%%%%%%%%%%%%%%%%%%%%",
"%%%%%%%%%%%%%%%%%%%%%%%%%%%%%%%%%%%%%%%%%%%%%%%%%%%%%%%%%%%%%%%%",
"%%%%%%%%%%%%%%%%%%%%%%%%%%%%%%%%%%%%%%%%%%%%%%%%%%%%%%%%%%%%%%%%"
};
