/* XPM */
static char *_bba9c4e40594dd6e775d367c6d79b603KUPTtHoO9fY4saI[] = {
/* columns rows colors chars-per-pixel */
"30 30 110 2 ",
"   c #4F3F47",
".  c #5B4448",
"X  c #704E4B",
"o  c #78524C",
"O  c #77514C",
"+  c #724F4B",
"@  c #5D4648",
"#  c #503F47",
"$  c #504047",
"%  c #5B4548",
"&  c #514047",
"*  c #634849",
"=  c #78514C",
"-  c #75504C",
";  c #6A4C4C",
":  c #5F474B",
">  c #554248",
",  c #534147",
"<  c #584348",
"1  c #644849",
"2  c #76504C",
"3  c #78524D",
"4  c #805652",
"5  c #7A5452",
"6  c #574348",
"7  c #694A4A",
"8  c #734F4C",
"9  c #76514C",
"0  c #7A534D",
"q  c #895A54",
"w  c #855955",
"e  c #62484C",
"r  c #594348",
"t  c #6F4D4B",
"y  c #79524C",
"u  c #845955",
"i  c #63494C",
"p  c #7A524D",
"a  c #875A54",
"s  c #835854",
"d  c #6E4D4B",
"f  c #76504B",
"g  c #79524D",
"h  c #875A53",
"j  c #7B534E",
"k  c #885A54",
"l  c #7D554F",
"z  c #855953",
"x  c #8D5D57",
"c  c #734F4A",
"v  c #75504B",
"b  c #8C5C57",
"n  c #8B5C56",
"m  c #7E5552",
"M  c #584347",
"N  c #6B4B49",
"B  c #76514B",
"V  c #60474B",
"C  c #634642",
"Z  c #6E4C48",
"A  c #815651",
"S  c #885A55",
"D  c #674947",
"F  c #544146",
"G  c #5F4543",
"H  c #6F4C48",
"J  c #815751",
"K  c #56403F",
"L  c #644745",
"P  c #7C544F",
"I  c #865953",
"U  c #845853",
"Y  c #7F5550",
"T  c #684946",
"R  c #564041",
"E  c #524045",
"W  c #554041",
"Q  c #654845",
"!  c #7D544F",
"~  c #524044",
"^  c #594244",
"/  c #684945",
"(  c #5A4344",
")  c #514046",
"_  c #594344",
"`  c #544145",
"'  c #5C4342",
"]  c #5F4440",
"[  c #5F4441",
"{  c #5D4441",
"}  c #554145",
"|  c #594347",
" . c #6A4B48",
".. c #714D49",
"X. c #704D49",
"o. c #714E49",
"O. c #6C4B48",
"+. c #5B4447",
"@. c #64484A",
"#. c #6B4C4C",
"$. c #64494A",
"%. c #694B4A",
"&. c #674946",
"*. c #644845",
"=. c #694945",
"-. c #514048",
";. c #534044",
":. c #58403D",
">. c #57403E",
",. c white",
/* pixels */
"  . X o O O O O O o + @   # $   % X o O O O O O o + @   # & ",
". * + = O O O O O = - ; : > , < 1 + = O O O O O = - ; : > & ",
"X + 2 O O O O O O O 3 4 5 : 6 7 8 9 O O O O O O O 3 4 5 : # ",
"o = O O O O O O O 9 0 q w e r t y = O O O O O O 9 0 q u i   ",
"O O O O O O O O O 9 p a s e < d o O O O O O O O 9 p a s e   ",
"O O O O O O O O O 9 p a s e < d o O O O O O O O 9 p a s e   ",
"O O O O O O O O O 9 p a s e < d o O O O O O O O 9 p a s e   ",
"O O O O O O O O O f g h s e < d o O O O O O O O f g h s e   ",
"O O O O O O O O O O j k s e < d o O O O O O O O O j k s e   ",
"3 = O 9 9 9 9 f O l z x u e r d y O 9 9 9 9 f O l z x u i   ",
"c v g 0 p p p g j z b n m : M N B g 0 p p p g j z b n m V # ",
"C Z A S a a a a k x n p D M F G H J S a a a a k x n p D M $ ",
"K L P I U U U U U I Y T R E E W Q ! I U U U U U I Y T R ~ & ",
"~ ^ L / / / / / / / Q ( ~ ) ) E _ L / / / / / / / Q ( ~ ) & ",
"$ ` ' ] [ [ [ [ [ ] { } $ $ & $ ` ' ] [ [ [ [ [ ] { } $ $ & ",
"  |  ...X.X.X.X.X.o.O.+.# $ $ # |  ...X.X.X.X.X.o.O.+.# $ & ",
"% @.8 g o = = = = y - #.: > , r $.8 g o = = = = y - #.: > & ",
"X + 9 O O O O O O O g 4 5 : 6 %.8 9 O O O O O O O g 4 5 : # ",
"o = O O O O O O O 9 0 q w e r t y = O O O O O O 9 0 q u i   ",
"O O O O O O O O O 9 p a s e < d o O O O O O O O 9 p a s e   ",
"O O O O O O O O O 9 p a s e < d o O O O O O O O 9 p a s e   ",
"O O O O O O O O O 9 p a s e < d o O O O O O O O 9 p a s e   ",
"O O O O O O O O O f g h s e < d o O O O O O O O f g h s e   ",
"O O O O O O O O O O j k s e < d o O O O O O O O O j k s e   ",
"3 = O 9 9 9 9 f O l z x u e r d y O 9 9 9 9 f O l z x u i   ",
"c v g 0 p p p g j z b n m : M N B g 0 p p p g j z b n m V # ",
"C Z A S a a a a k x n p D M F G H J S a a a a k x n p D M $ ",
"K L P I U U U U U I Y &.R E E W Q ! I U U U U U I Y &.R E & ",
"~ _ *.=./ / / / / =.Q ( E ) ) E _ *.=./ / / / / =.Q ( E ) & ",
"-.;.K :.:.:.:.:.:.:.>.;.& & & & ;.K :.:.:.:.:.:.:.>.;.& & & "
};
