/* XPM */
static char *_96c6cc1a51b4db28075f62f6d489ec2CGydq0KXFskjlSFS[] = {
/* columns rows colors chars-per-pixel */
"30 30 104 2 ",
"   c #2E1E22",
".  c #3D2D26",
"X  c #323234",
"o  c #462F26",
"O  c #433C2F",
"+  c #534721",
"@  c #57403E",
"#  c #56403F",
"$  c #58403D",
"%  c #69423A",
"&  c #4F3F47",
"*  c #503F47",
"=  c #564041",
"-  c #524044",
";  c #534044",
":  c #524045",
">  c #514046",
",  c #504047",
"<  c #514047",
"1  c #544145",
"2  c #554145",
"3  c #5C4342",
"4  c #5D4441",
"5  c #594244",
"6  c #594344",
"7  c #5A4344",
"8  c #584347",
"9  c #594347",
"0  c #5B4447",
"q  c #514048",
"w  c #554248",
"e  c #5B4448",
"r  c #5B4548",
"t  c #5D4648",
"y  c #5F474B",
"u  c #545456",
"i  c #634642",
"p  c #644745",
"a  c #644845",
"s  c #654845",
"d  c #674946",
"f  c #674947",
"g  c #684945",
"h  c #694945",
"j  c #684946",
"k  c #60474B",
"l  c #634849",
"z  c #64484A",
"x  c #62484C",
"c  c #63494C",
"v  c #6A4B48",
"b  c #6C4B48",
"n  c #6E4C48",
"m  c #6A4C4C",
"M  c #6B4C4C",
"N  c #714E49",
"B  c #704E4B",
"V  c #734F4A",
"C  c #724F4B",
"Z  c #734F4C",
"A  c #685F41",
"S  c #75504B",
"D  c #76504B",
"F  c #75504C",
"G  c #76504C",
"H  c #76514C",
"J  c #77514C",
"K  c #78514C",
"L  c #78524C",
"P  c #79524C",
"I  c #78524D",
"U  c #79524D",
"Y  c #7A524D",
"T  c #7A534D",
"R  c #7B534E",
"E  c #7C544F",
"W  c #7D554F",
"Q  c #77584A",
"!  c #7C5E4F",
"~  c #7A5452",
"^  c #7F5550",
"/  c #7E5552",
"(  c #767678",
")  c #8B5E4A",
"_  c #815651",
"`  c #805652",
"'  c #845853",
"]  c #855953",
"[  c #865953",
"{  c #875A53",
"}  c #835854",
"|  c #845955",
" . c #875A54",
".. c #885A54",
"X. c #895A54",
"o. c #885A55",
"O. c #8B5C56",
"+. c #8C5C57",
"@. c #8D5D57",
"#. c #A77E5D",
"$. c #8A7461",
"%. c #979799",
"&. c #B7B7BB",
"*. c #D2D2D6",
/* pixels */
"& e B L G L G L G L B X X X X X X X K K K D J J R S e , & q ",
"e l B L L G L G L X X u u ( ( ( u u X X D K J J D D m y w & ",
"B B J L G L G L X u ( ( %.%.%.%.%.( ( u X K D J D D / ~ y & ",
"L L J J L G L X u ( %.%.%.&.&.&.%.%.%.( u X L J L R O.| c & ",
"L G L G L G X u ( %.%.%.&.&.&.&.&.%.%.%.( u X K J L  .| y , ",
"G L G L L X u ( %.%.%.&.&.&.&.&.&.&.%.%.%.( u X J R  .] y & ",
"L G L G G X ( ( %.%.%.&.&.&.&.&.&.&.%.%.%.( ( X F R | | c & ",
"G L G L X u ( %.%.%.%.%.&.&.&.&.&.%.%.%.%.%.( u X L { ] c & ",
"L G G L X X u ( %.%.( ( X X X ( %.%.%.%.%.%.( u X L  .} c & ",
"L L %.X u %.X u u u u u %.%.( X ( %.%.%.%.%.( u X  .@. .c & ",
"V Z %.X u ( %.%.&.&.&.&.&.&.%.( X u u ( %.( ( u X +.@./ y & ",
"i N %.*.X u ( ( %.%.%.%.(   &.( u &.%.u ( ( ( u X +.L s 8 * ",
"O f %.X X                 u &.u &.u u %.X ( u u X _ s = 1 & ",
"e e %.X u               u &.%.u %.X X ( X u u u X p 8 1 & 1 ",
"* * 3 %.X u ( %.%.%.&.&.&.%.u X %.X X u X u u u X 4 2 * q q ",
"* * b %.%.X X u ( ( %.%.( u $.X X ( u X u u u X B b 0 * * * ",
"z f Z R %.%.*.o % ! $.$.$.$.$.X u X X u u u X P L G M x * * ",
"B Z G L G L %.O . O % % ! ! ! X u ( u u u u X P L L } ~ x * ",
"G G L G L G Z O % . . o . . . . X u ( &.%.( u X L L  . .c & ",
"G L G L G L L Z X u ( ( %.( u X u X X X X X X D Z L  .} x * ",
"L G L G L G L G X u ( %.&.&.( u ( %.%.( X D L D J L X.} c & ",
"G L G L G L G L X X u %.&.%.( X X X X u X L D L J R  .} x & ",
"L G L G L G L G X u ( u u X X + %.&.u X J J L D Z R  .} x & ",
"G L G L G L G L K X X u u u u + %.%.( + J L D L L L  .} x & ",
"L L L G L J J L L X ( %.&.u &.+ #.#.) + D D D D W ' @.| c & ",
"Z Z L R L L L L ~ X ( %.%.X %.+ #.#.Q + R R R R ' @.O./ y , ",
"i n _ X. . . . .X.X u %.X X ( ( + + + O ' ' { { O.O.R s 2 , ",
"* p R X.' ' ' ' [ [ X X X u X X u + A O ] ] ] ] ' ] f = 1 , ",
"* $ s h h s h h p h n 4 + ) #.) Q + O O h h h h h s 6 1 , 1 ",
"1 5 # $ $ $ $ $ i O * * + #.#.) Q + $ # $ # $ $ $ # - 1 , , "
};
