/* XPM */
static char *result[] = {
/* columns rows colors chars-per-pixel */
"64 64 35 1 ",
"  c #595E3D",
". c #403E44",
"X c #444145",
"o c #444349",
"O c #5F5943",
"+ c #424050",
"@ c #484657",
"# c #4F4C54",
"$ c #525058",
"% c #645F50",
"& c #5C6245",
"* c #5F6E53",
"= c #60674F",
"- c #616752",
"; c #646856",
": c #565362",
"> c #605F64",
", c #615D67",
"< c #6C6763",
"1 c #696960",
"2 c #63606A",
"3 c #6F6A69",
"4 c #697065",
"5 c #676573",
"6 c #707272",
"7 c #77737F",
"8 c #7A7580",
"9 c #7C7881",
"0 c #827F8A",
"q c #817F8E",
"w c #8E8B95",
"e c #97959E",
"r c #A19FA7",
"t c #ADAEAE",
"y c #B1AFB6",
/* pixels */
"wwwwwqqqqqq2<<<<@@@@@:@@@@@@@@@@@@@@@@@@@@@@@rwwwwewwwwww9999999",
"wrrwqqqqqqq2<<<<@@@@@::@@@@@@@:@@@@@@@@@@@@@w00000777777,,,,,,,,",
"wrqqqqqqq772%%%%@@@@@@::@@@@@@:@@@@@@@@@@@@w00000777777,,,,,,,,#",
"qrqqqqq77772%%%%@@@@@:::@@@@@@::@@@@@@@@@@w00000777777,,,,,,,,##",
"qqqqq7777772%%%%@@@@:::@@@@@@@@:@@@@@@@@@w00000777777,,,,,,,,###",
"qqq777777772%%%%@@@@@@::@@@@@@@:@@@@@@@@w00000777777,,,,,,,,####",
"q77777777772%%%%@@@@@@@@:@@@@:::@@@@@@@w00000777777,,,,,,,,#####",
"7777777777w2%%%%@@@@@@@@:@@@@:@@@@@@@@w00000777777,,,,,,,,######",
"7777777wwry2%%%%@@@@@@@::@@@@::@@@@@@w00000777777,,,,,,,,#######",
"2$ooooooooo$%%%%@@@@@@@:@@@@@@::@@@@w00000777777,,,,,,,,########",
"OOO%74444444&%%%@@@@@@::@@@@@@@:@@@w00000777777,,,,,,,,########.",
"OO &4*444444&%%%@@@::::@@@@@@@@:@@w00000777777,,,,,,,,########..",
"OO &4*444444-<<<@@:::@@@@@@@@@@@@w00000777777,,,,,,,,########...",
"OO &4*444444-<<<@@@@::@@@@@@@@@@w00000777777,,,,,,,,########....",
"<<--&&%%%%%%4444@@@@@:@@@@@@@@@w00000777777,,,,,,,,########.....",
"<<<<%%%%%%%%4444++++@::@@@@@@@w00000777777,,,,,,,,########......",
"<<<<%%%%%%%%4444++++@@:@@@@@@w00000777777,,,,,,,,########.......",
"<<<<%%%%%%%%4444++++@@:@@@@@w00000777777,,,,,,,,########.......@",
"++++++++++++++++++++@@:@@@@w00000777777,,,,,,,,########.......@@",
"++++++++++++++++++++@@@@@@w00000777777,,,,,,,,########.......@@@",
"++++++++++++++++++++@@@@@w00000777777,,,,,,,,########.......@@@@",
"++++++++++++++++++++@@@@w00000777777,,,,,,,,########.......@@@@@",
"@@@@@@@@@@@@::@@@@::@@@w00000777777,,,,,,,,########.......@@@@@@",
"@@@@@@@@@@:::@@@@::@@@w00000777777,,,,,,,,########.......@@@@@@@",
"@@@@@@@@@::@@@@@::@@@w00000777777,,,,,,,,########.......@@@@@@@@",
"@@@@@@@@::@@@@@::@@@w00000077777,,,,,,,,########.......@@@@@@@@@",
"@@@@@@@::@@@@@::@@@w00000077777,,,,,,,,########.......@@@@@@@@@@",
"@@@@@@@:@@@@@::@@@w00000077777,,,,,,,,########.......@@@@@@@@@@@",
"@@@@@@::@@@@::@@@w00000077777,,,,,,,,########.......@@@@@@@@@@@@",
"@@@@:::@@@@::@@@w00000077777,,,,,,,,########.......@@@@@@@@@@@:@",
"@@@::@@@@@::@@@w00000077777,,,,,,,,########.......@@@@@@@@@@:::@",
"@:::@@@@@@:@@@w00000077777,,,,,,,,########.......@@@@@@@@@@::@@@",
"::@@@@@@@::@@w00000077777,,,,,,,,########.......@@@@@@@@@@::@@@@",
"@@@@@@@@::@@w00000077777,,,,,,,,########.......@@@@@@@@@::@@@@@@",
"@@@@@@@::@@w00000077777,,,,,,,,########.......@@@@@@@@@::@@@@@@@",
"@@@@@@@:@@w00000077777,,,,,,,,#######........@@@@@@@@@::@@@@@@@@",
"@@@@@@::@w00000077777,,,,,,,,#######........@@@@@@@@@@:@@@@@@@@@",
"@@@@@::5w00000077777,,,,,,,,#######........@@@@@@@@@@::@@@@@@@@@",
"@@@@::@w00000077777,,,,,,,,#######........@@@@@@@@@@@:@@@@@@@@::",
"@@@::@w00000077777,,,,,,,,#######........@@@@@@@@@@@::@@@@@@@::@",
"@:::@w00000077777,,,,,,,,#######........@@@@@@@@@@@::@@@@@@:::@@",
"::@@w00000077777,,,,,,,,#######........@@@@@@@@@@@::@@@@@@::@@@@",
"@@@w00000077777,,,,,,,,#######.......8:@@@@@@@@@:::@@@@@@::@@@@@",
"@@w00000077777,,,,,,,,#######........@:::@@@@@@@@@@@@@@@::@@@@@@",
"@w00000077777,,,,,,,,#######........@@@@:::@@@@@@@@@@@@::@@@@@@@",
"w00000077777,,,,,,,,#######........@@@@@@@:::@@@@@@@::::@@@@@@@@",
"w0000077777,,,,,,,,#######........@@@@@@@@@@:@@@@@@@:@@@@@@@@@@@",
"w000077777,,,,,,,,#######........@::@@@@@@@@@@wwwwwwqqqqq77wyyyy",
"w00077777,,,,,,,,#######........@@@::@@@@@++++wrrrqqqqqq7777776t",
"w0077777,,,,,,,,#######........@@@@@::@@@@++++wryqqqqqq777777666",
"w077777,,,,,,,,#######........@@@@@@@::@@@++++wrqqqqq77777766666",
"w77777,,,,,,,,#######........@@@@@@@@@:@@@++++wqqqqq777776666666",
"w7777,,,,,,,,#######........@@:::@@@@@::@@++++wqqqq7777666666111",
"w777,,,,,,,,#######........@@@@@::@@@@@::@++++qqqq77766666666111",
"w77,,,,,,,,#######........@@@@@@@::@@@@@:@++++qq7777666666666113",
"w7,,,,,,,,#######........@@@@@@@@@:@@@@@::++++q77776666666666333",
"w,,,,,,,,#######........@@@@@@@@@@:@@@@@@@++++77766666666667w333",
"9,,,,,,,#######........@@@@@@@@@@@::@@@@@@++++7766666666677ww333",
"9,,,,,,#######........:@@@@@@@@@@@@:@@@@@@++++666666666677wyr333",
"9,,,,,#######.......>@@:::@@@@@@@@@::@@@@@++++6666666667wwrry333",
"9,,,,#######.......>@@@@@:::@@@@@@@@::@@@@++++111111133333333333",
"9,,,#######.......>@@@@@@@@:@@@@@@@@@::@@@++XX====13333333333333",
"9,,#######.......>@@@@@@@@@::@@@@@@@@@::@@++XX;;;;33333333333333",
"9,#######.......>@@@@@@@@@@@::::@@@@@@@:@@++XX;;;;33333333333333"
};
